<svg width="19" height="16" viewBox="0 0 19 16" fill="none" xmlns="http://www.w3.org/2000/svg">
<path d="M14.9999 8.91669V7.08335H18.6666V8.91669H14.9999ZM16.0999 15.3334L13.1666 13.1334L14.2666 11.6667L17.1999 13.8667L16.0999 15.3334ZM14.2666 4.33335L13.1666 2.86669L16.0999 0.666687L17.1999 2.13335L14.2666 4.33335ZM3.08325 14.4167V10.75H2.16659C1.66242 10.75 1.23097 10.5707 0.872252 10.2119C0.51353 9.85322 0.333863 9.42146 0.333252 8.91669V7.08335C0.333252 6.57919 0.512919 6.14774 0.872252 5.78902C1.23159 5.4303 1.66303 5.25063 2.16659 5.25002H5.83325L10.4166 2.50002V13.5L5.83325 10.75H4.91659V14.4167H3.08325ZM8.58325 10.2459V5.75419L6.33742 7.08335H2.16659V8.91669H6.33742L8.58325 10.2459ZM11.3333 11.0709V4.92919C11.7458 5.29585 12.0782 5.74288 12.3306 6.27027C12.583 6.79766 12.7089 7.37424 12.7083 8.00002C12.7076 8.6258 12.5814 9.20269 12.3297 9.73069C12.0779 10.2587 11.7458 10.7054 11.3333 11.0709Z" fill="#333333"/>
</svg>
