<svg width="22" height="22" viewBox="0 0 22 22" fill="none" xmlns="http://www.w3.org/2000/svg">
<g clip-path="url(#clip0_148_3421)">
<path d="M7.00153 9.33533C6.79973 8.86236 6.4942 8.44079 6.10753 8.1018C5.72086 7.76281 5.26294 7.51507 4.76762 7.3769C4.27231 7.23872 3.75227 7.21365 3.24596 7.30353C2.73965 7.39341 2.26002 7.59595 1.84253 7.89617M14.9985 9.33533C15.2003 8.86236 15.5059 8.44079 15.8925 8.1018C16.2792 7.76281 16.7371 7.51507 17.2324 7.3769C17.7277 7.23872 18.2478 7.21365 18.7541 7.30353C19.2604 7.39341 19.74 7.59595 20.1575 7.89617M1.84253 4.67683C1.84253 5.2078 2.05345 5.71701 2.4289 6.09246C2.80435 6.46791 3.31357 6.67883 3.84453 6.67883C4.37549 6.67883 4.88471 6.46791 5.26016 6.09246C5.63561 5.71701 5.84653 5.2078 5.84653 4.67683C5.84653 4.14587 5.63561 3.63665 5.26016 3.26121C4.88471 2.88576 4.37549 2.67483 3.84453 2.67483C3.31357 2.67483 2.80435 2.88576 2.4289 3.26121C2.05345 3.63665 1.84253 4.14587 1.84253 4.67683ZM16.1535 4.67683C16.1535 5.2078 16.3645 5.71701 16.7399 6.09246C17.1153 6.46791 17.6246 6.67883 18.1555 6.67883C18.6865 6.67883 19.1957 6.46791 19.5712 6.09246C19.9466 5.71701 20.1575 5.2078 20.1575 4.67683C20.1575 4.14587 19.9466 3.63665 19.5712 3.26121C19.1957 2.88576 18.6865 2.67483 18.1555 2.67483C17.6246 2.67483 17.1153 2.88576 16.7399 3.26121C16.3645 3.63665 16.1535 4.14587 16.1535 4.67683ZM7.94111 3.74642C7.94111 4.14812 8.02023 4.54589 8.17396 4.91701C8.32768 5.28814 8.553 5.62535 8.83705 5.9094C9.1211 6.19344 9.45831 6.41876 9.82943 6.57249C10.2006 6.72621 10.5983 6.80533 11 6.80533C11.4017 6.80533 11.7995 6.72621 12.1706 6.57249C12.5418 6.41876 12.879 6.19344 13.163 5.9094C13.4471 5.62535 13.6724 5.28814 13.8261 4.91701C13.9798 4.54589 14.0589 4.14812 14.0589 3.74642C14.0589 2.93514 13.7367 2.15709 13.163 1.58344C12.5894 1.00978 11.8113 0.6875 11 0.6875C10.1888 0.6875 9.41071 1.00978 8.83705 1.58344C8.26339 2.15709 7.94111 2.93514 7.94111 3.74642Z" stroke="#333333" stroke-width="1.5" stroke-linecap="round" stroke-linejoin="round"/>
<path d="M16.2918 10.505C15.6211 9.76829 14.804 9.17974 13.8928 8.77701C12.9815 8.37428 11.9962 8.16626 10.9999 8.16626C10.0036 8.16626 9.01834 8.37428 8.10708 8.77701C7.19583 9.17974 6.3787 9.76829 5.70801 10.505M14.6253 12.7013C14.6102 13.653 14.2215 14.5606 13.5432 15.2282C12.8649 15.8958 11.9512 16.27 10.9995 16.27C10.0477 16.27 9.13406 15.8958 8.45573 15.2282C7.77739 14.5606 7.38872 13.653 7.37359 12.7013" stroke="#333333" stroke-width="1.5" stroke-linecap="round" stroke-linejoin="round"/>
<path d="M19.6111 12.6977V14.0608L18.0527 14.3724C17.8734 15.1281 17.5722 15.8495 17.1608 16.5083L18.0491 17.8319L16.1241 19.7569L14.8013 18.8687C14.1418 19.2823 13.4191 19.5854 12.6618 19.7661L12.3538 21.3162H9.6405L9.33158 19.7661C8.57463 19.5853 7.85227 19.2822 7.193 18.8687L5.86658 19.7533L3.94158 17.8283L4.82983 16.5046C4.41818 15.8459 4.11661 15.1245 3.937 14.3688L2.37866 14.0571V12.6977" stroke="#333333" stroke-width="1.5" stroke-linecap="round" stroke-linejoin="round"/>
</g>
<defs>
<clipPath id="clip0_148_3421">
<rect width="22" height="22" fill="white"/>
</clipPath>
</defs>
</svg>
