<svg width="22" height="22" viewBox="0 0 22 22" fill="none" xmlns="http://www.w3.org/2000/svg">
<g clip-path="url(#clip0_57_405)">
<path d="M7.33341 2.75C5.63161 2.75 3.9995 3.42604 2.79615 4.6294C1.59279 5.83276 0.916748 7.46486 0.916748 9.16667C0.916748 10.8685 1.59279 12.5006 2.79615 13.7039C3.9995 14.9073 5.63161 15.5833 7.33341 15.5833H8.31425C8.2265 14.9754 8.2265 14.358 8.31425 13.75H7.33341C6.11784 13.75 4.95205 13.2671 4.09251 12.4076C3.23297 11.548 2.75008 10.3822 2.75008 9.16667C2.75008 7.95109 3.23297 6.7853 4.09251 5.92576C4.95205 5.06622 6.11784 4.58333 7.33341 4.58333H14.6667C15.3465 4.58319 16.0177 4.73424 16.6319 5.02554C17.246 5.31683 17.7877 5.74108 18.2176 6.26755C18.6476 6.79402 18.955 7.40953 19.1178 8.06949C19.2805 8.72945 19.2944 9.41734 19.1584 10.0833C19.6988 10.6126 20.1413 11.2333 20.4656 11.9167C20.9296 10.9385 21.1385 9.85889 21.073 8.77826C21.0074 7.69764 20.6696 6.65117 20.0908 5.73625C19.512 4.82134 18.7112 4.06774 17.7628 3.54561C16.8144 3.02347 15.7494 2.74978 14.6667 2.75H7.33341ZM14.6667 11.9167C13.9374 11.9167 13.2379 12.2064 12.7222 12.7221C12.2065 13.2378 11.9167 13.9373 11.9167 14.6667C11.9167 15.396 12.2065 16.0955 12.7222 16.6112C13.2379 17.1269 13.9374 17.4167 14.6667 17.4167C15.3961 17.4167 16.0956 17.1269 16.6113 16.6112C17.127 16.0955 17.4167 15.396 17.4167 14.6667C17.4167 13.9373 17.127 13.2378 16.6113 12.7221C16.0956 12.2064 15.3961 11.9167 14.6667 11.9167ZM10.0834 14.6667C10.0836 13.952 10.2509 13.2474 10.5719 12.6089C10.8929 11.9704 11.3587 11.4159 11.9323 10.9895C12.5058 10.5632 13.171 10.2768 13.8749 10.1534C14.5788 10.0299 15.3018 10.0727 15.9861 10.2784C16.6705 10.4842 17.2973 10.8471 17.8164 11.3381C18.3356 11.8292 18.7327 12.4349 18.9761 13.1068C19.2195 13.7787 19.3024 14.4982 19.2181 15.2079C19.1339 15.9175 18.885 16.5976 18.4911 17.1939L20.8148 19.5186L19.5187 20.8148L17.194 18.491C16.5032 18.9476 15.7015 19.2085 14.8743 19.246C14.047 19.2835 13.2251 19.0962 12.4957 18.7039C11.7664 18.3117 11.157 17.7292 10.7323 17.0183C10.3075 16.3074 10.0833 15.4948 10.0834 14.6667Z" fill="#333333"/>
</g>
<defs>
<clipPath id="clip0_57_405">
<rect width="21.7778" height="21.7778" fill="white" transform="translate(0.111084 0.111084)"/>
</clipPath>
</defs>
</svg>
