<svg width="21" height="19" viewBox="0 0 21 19" fill="none" xmlns="http://www.w3.org/2000/svg">
<path d="M20.125 6.5625V2.4375H16V3.8125H9.125V1.75C9.12445 1.38549 8.97941 1.03607 8.72167 0.778331C8.46392 0.520586 8.11451 0.375546 7.75 0.375H2.25C1.88549 0.375546 1.53607 0.520586 1.27833 0.778331C1.02059 1.03607 0.875546 1.38549 0.875 1.75V7.25C0.875546 7.61451 1.02059 7.96392 1.27833 8.22167C1.53607 8.47941 1.88549 8.62445 2.25 8.625H7.75C8.11451 8.62445 8.46392 8.47941 8.72167 8.22167C8.97941 7.96392 9.12445 7.61451 9.125 7.25V5.1875C9.67184 5.18805 10.1961 5.40552 10.5828 5.7922C10.9695 6.17887 11.187 6.70316 11.1875 7.25V13.4375H7.0625V12.0625H2.9375V16.1875H7.0625V14.8125H11.1875V16.1875C11.188 16.552 11.3331 16.9014 11.5908 17.1592C11.8486 17.4169 12.198 17.562 12.5625 17.5625H16V18.9375H20.125V14.8125H16V16.1875H12.5625V11.375H16V12.75H20.125V8.625H16V10H12.5625V7.25C12.5601 6.50384 12.3125 5.77915 11.8578 5.1875H16V6.5625H20.125ZM2.25 7.25V1.75H7.75V7.25H2.25ZM5.6875 14.8125H4.3125V13.4375H5.6875V14.8125ZM17.375 16.1875H18.75V17.5625H17.375V16.1875ZM17.375 10H18.75V11.375H17.375V10ZM17.375 3.8125H18.75V5.1875H17.375V3.8125Z" fill="#333333"/>
</svg>
