<svg width="23" height="22" viewBox="0 0 23 22" fill="none" xmlns="http://www.w3.org/2000/svg">
<path d="M11.5002 0.111084C9.3466 0.111084 7.24135 0.749706 5.45068 1.94619C3.66001 3.14268 2.26435 4.84329 1.4402 6.83298C0.616046 8.82266 0.40041 11.0121 0.82056 13.1243C1.24071 15.2365 2.27778 17.1767 3.80061 18.6996C5.32345 20.2224 7.26367 21.2595 9.37591 21.6796C11.4881 22.0998 13.6775 21.8841 15.6672 21.06C17.6569 20.2358 19.3575 18.8402 20.554 17.0495C21.7505 15.2588 22.3891 13.1536 22.3891 11C22.386 8.11302 21.2378 5.3452 19.1964 3.30381C17.155 1.26243 14.3872 0.114206 11.5002 0.111084ZM20.5743 11C20.5754 12.7782 20.0507 14.5171 19.0662 15.998L17.9846 14.9154C17.8997 14.8304 17.8521 14.7152 17.8521 14.5951V13.7222C17.8521 13.0002 17.5653 12.3078 17.0548 11.7973C16.5442 11.2868 15.8518 11 15.1299 11H12.4076C12.167 11 11.9362 10.9044 11.766 10.7342C11.5958 10.564 11.5002 10.3332 11.5002 10.0926V9.63886C11.5002 9.51853 11.548 9.40313 11.6331 9.31804C11.7182 9.23296 11.8336 9.18516 11.9539 9.18516C12.5556 9.18516 13.1326 8.94615 13.558 8.52073C13.9834 8.09529 14.2224 7.51829 14.2224 6.91664V6.00923C14.2224 5.8889 14.2702 5.7735 14.3553 5.68842C14.4404 5.60333 14.5558 5.55553 14.6761 5.55553H15.9275C16.5285 5.55382 17.1047 5.31515 17.5309 4.89131L17.8729 4.54921C18.7288 5.39136 19.4084 6.39546 19.8722 7.50298C20.336 8.6105 20.5747 9.79927 20.5743 11ZM2.47061 11.8738L5.3362 14.7394C5.58837 14.9932 5.88843 15.1944 6.21897 15.3313C6.54951 15.4682 6.90395 15.5381 7.26172 15.537H9.68541C9.92607 15.537 10.1569 15.6326 10.327 15.8028C10.4972 15.973 10.5928 16.2038 10.5928 16.4444V20.0278C8.50595 19.8147 6.55702 18.8864 5.07662 17.4002C3.59622 15.914 2.67549 13.9615 2.47061 11.8738ZM12.4076 20.0278V16.4444C12.4076 15.7224 12.1208 15.03 11.6103 14.5195C11.0998 14.009 10.4074 13.7222 9.68541 13.7222H7.26172C7.14242 13.7223 7.02426 13.6989 6.91402 13.6532C6.80379 13.6076 6.70363 13.5407 6.61928 13.4563L2.57406 9.4111C2.83373 7.93493 3.45582 6.54632 4.38449 5.36986C5.31317 4.19339 6.51938 3.26587 7.89491 2.67053C9.27043 2.07518 10.7722 1.83063 12.2656 1.95882C13.7589 2.08701 15.1971 2.58392 16.451 3.40497L16.2478 3.60823C16.1624 3.69247 16.0474 3.74 15.9275 3.74071H14.6761C14.0745 3.74071 13.4975 3.97972 13.0721 4.40515C12.6466 4.83058 12.4076 5.40758 12.4076 6.00923V6.91664C12.4076 7.03697 12.3598 7.15237 12.2747 7.23746C12.1897 7.32254 12.0743 7.37034 11.9539 7.37034C11.3523 7.37034 10.7753 7.60935 10.3498 8.03478C9.92441 8.46021 9.68541 9.03721 9.68541 9.63886V10.0926C9.68541 10.8145 9.97221 11.507 10.4827 12.0175C10.9932 12.528 11.6857 12.8148 12.4076 12.8148H15.1299C15.3705 12.8148 15.6013 12.9104 15.7715 13.0806C15.9417 13.2507 16.0373 13.4815 16.0373 13.7222V14.5951C16.039 15.1962 16.2776 15.7723 16.7015 16.1985L17.9147 17.4117C16.4369 18.8946 14.4907 19.8191 12.4076 20.0278Z" fill="#0C0A08"/>
</svg>
