<svg width="1440" height="776" viewBox="0 0 1440 776" fill="none" xmlns="http://www.w3.org/2000/svg">
<line y1="-0.5" x2="1056.65" y2="-0.5" transform="matrix(-0.429952 -0.902852 -0.429952 0.902852 1840 805)" stroke="url(#paint0_linear_54_321)"/>
<line y1="-0.5" x2="1056.65" y2="-0.5" transform="matrix(-0.429952 -0.902852 -0.429952 0.902852 1642 805)" stroke="url(#paint1_linear_54_321)"/>
<line y1="-0.5" x2="1056.65" y2="-0.5" transform="matrix(-0.429952 -0.902852 -0.429952 0.902852 1444 805)" stroke="url(#paint2_linear_54_321)"/>
<line y1="-0.5" x2="1056.65" y2="-0.5" transform="matrix(-0.429952 -0.902852 -0.429952 0.902852 1246 805)" stroke="url(#paint3_linear_54_321)"/>
<line y1="-0.5" x2="1056.65" y2="-0.5" transform="matrix(-0.429952 -0.902852 -0.429952 0.902852 1048 805)" stroke="url(#paint4_linear_54_321)"/>
<line y1="-0.5" x2="1056.65" y2="-0.5" transform="matrix(-0.429952 -0.902852 -0.429952 0.902852 850 805)" stroke="url(#paint5_linear_54_321)"/>
<line y1="-0.5" x2="1056.65" y2="-0.5" transform="matrix(-0.429952 -0.902852 -0.429952 0.902852 652 805)" stroke="url(#paint6_linear_54_321)"/>
<circle cx="969" cy="969" r="968.5" transform="matrix(-1 0 0 1 1819 -1417)" stroke="url(#paint7_linear_54_321)" stroke-opacity="0.39"/>
<circle cx="969" cy="969" r="968.5" transform="matrix(-1 0 0 1 1819 -1250)" stroke="url(#paint8_linear_54_321)" stroke-opacity="0.39"/>
<g opacity="0.3">
<path d="M1427.82 329.452L1407.27 344.535" stroke="url(#paint9_linear_54_321)"/>
<path d="M1425.5 348.999L1413.82 325.086" stroke="url(#paint10_linear_54_321)"/>
</g>
<g opacity="0.29">
<path d="M1276 422L1253 433" stroke="url(#paint11_linear_54_321)"/>
<path d="M1269.98 439.004L1259.01 415.992" stroke="url(#paint12_linear_54_321)"/>
</g>
<path d="M1339.4 554.898L1317.5 567.5" stroke="url(#paint13_linear_54_321)"/>
<path d="M1333.98 573.012L1323.01 550" stroke="url(#paint14_linear_54_321)"/>
<path d="M1108 485.5L1082.5 492.5" stroke="url(#paint15_linear_54_321)"/>
<path d="M1102 501.5L1090.5 477.5" stroke="url(#paint16_linear_54_321)"/>
<g opacity="0.29">
<path d="M1178.5 630.5L1151 640" stroke="url(#paint17_linear_54_321)"/>
<path d="M1171.98 648L1160.5 624.5" stroke="url(#paint18_linear_54_321)"/>
</g>
<g opacity="0.29">
<path d="M927 517.5L900 519" stroke="url(#paint19_linear_54_321)"/>
<path d="M918.977 533L907.477 509" stroke="url(#paint20_linear_54_321)"/>
</g>
<path d="M1002.73 675.492L975.5 679.5" stroke="url(#paint21_linear_54_321)"/>
<path d="M995 693L983 668" stroke="url(#paint22_linear_54_321)"/>
<g opacity="0.3">
<path d="M726 513L697.802 508.81" stroke="url(#paint23_linear_54_321)"/>
<path d="M716.977 524L705.477 500" stroke="url(#paint24_linear_54_321)"/>
</g>
<g opacity="0.3">
<path d="M809 686.999L780.5 684.999" stroke="url(#paint25_linear_54_321)"/>
<path d="M799.977 699.999L788.477 675.999" stroke="url(#paint26_linear_54_321)"/>
</g>
<g opacity="0.32">
<path d="M497.5 454L471 443.5" stroke="url(#paint27_linear_54_321)"/>
<path d="M491 466L476 435" stroke="url(#paint28_linear_54_321)"/>
</g>
<g opacity="0.32">
<path d="M593.5 653.5L565.5 645" stroke="url(#paint29_linear_54_321)"/>
<path d="M584.977 663.5L572.477 638" stroke="url(#paint30_linear_54_321)"/>
</g>
<defs>
<linearGradient id="paint0_linear_54_321" x1="742.592" y1="0.971416" x2="152.041" y2="0.971386" gradientUnits="userSpaceOnUse">
<stop stop-color="#3D3D3D" stop-opacity="0"/>
<stop offset="1" stop-color="#5E5E5E"/>
</linearGradient>
<linearGradient id="paint1_linear_54_321" x1="742.592" y1="0.971416" x2="152.041" y2="0.971386" gradientUnits="userSpaceOnUse">
<stop stop-color="#3D3D3D" stop-opacity="0"/>
<stop offset="1" stop-color="#5E5E5E"/>
</linearGradient>
<linearGradient id="paint2_linear_54_321" x1="742.592" y1="0.971416" x2="152.041" y2="0.971386" gradientUnits="userSpaceOnUse">
<stop stop-color="#3D3D3D" stop-opacity="0"/>
<stop offset="1" stop-color="#5E5E5E"/>
</linearGradient>
<linearGradient id="paint3_linear_54_321" x1="742.592" y1="0.971416" x2="152.041" y2="0.971386" gradientUnits="userSpaceOnUse">
<stop stop-color="#3D3D3D" stop-opacity="0"/>
<stop offset="1" stop-color="#5E5E5E"/>
</linearGradient>
<linearGradient id="paint4_linear_54_321" x1="742.592" y1="0.971416" x2="152.041" y2="0.971386" gradientUnits="userSpaceOnUse">
<stop stop-color="#3D3D3D" stop-opacity="0"/>
<stop offset="1" stop-color="#5E5E5E"/>
</linearGradient>
<linearGradient id="paint5_linear_54_321" x1="742.592" y1="0.971416" x2="152.041" y2="0.971386" gradientUnits="userSpaceOnUse">
<stop stop-color="#3D3D3D" stop-opacity="0"/>
<stop offset="1" stop-color="#5E5E5E"/>
</linearGradient>
<linearGradient id="paint6_linear_54_321" x1="742.592" y1="0.971416" x2="152.041" y2="0.971386" gradientUnits="userSpaceOnUse">
<stop stop-color="#3D3D3D" stop-opacity="0"/>
<stop offset="1" stop-color="#5E5E5E"/>
</linearGradient>
<linearGradient id="paint7_linear_54_321" x1="969" y1="0" x2="969" y2="1938" gradientUnits="userSpaceOnUse">
<stop offset="0.795" stop-color="#3F3F3F" stop-opacity="0"/>
<stop offset="1" stop-color="#3A3A3A"/>
</linearGradient>
<linearGradient id="paint8_linear_54_321" x1="969" y1="0" x2="969" y2="1938" gradientUnits="userSpaceOnUse">
<stop offset="0.795" stop-color="#3F3F3F" stop-opacity="0"/>
<stop offset="1" stop-color="#3A3A3A"/>
</linearGradient>
<linearGradient id="paint9_linear_54_321" x1="1425.57" y1="331.056" x2="1406.56" y2="342.102" gradientUnits="userSpaceOnUse">
<stop stop-color="white" stop-opacity="0"/>
<stop offset="0.49" stop-color="white"/>
<stop offset="1" stop-color="white" stop-opacity="0"/>
</linearGradient>
<linearGradient id="paint10_linear_54_321" x1="1425.5" y1="348.022" x2="1415.46" y2="325.098" gradientUnits="userSpaceOnUse">
<stop stop-color="white" stop-opacity="0"/>
<stop offset="0.49" stop-color="white"/>
<stop offset="1" stop-color="white" stop-opacity="0"/>
</linearGradient>
<linearGradient id="paint11_linear_54_321" x1="1273.49" y1="423.158" x2="1252.76" y2="430.478" gradientUnits="userSpaceOnUse">
<stop stop-color="white" stop-opacity="0"/>
<stop offset="0.49" stop-color="white"/>
<stop offset="1" stop-color="white" stop-opacity="0"/>
</linearGradient>
<linearGradient id="paint12_linear_54_321" x1="1269.96" y1="438.056" x2="1259.41" y2="416.51" gradientUnits="userSpaceOnUse">
<stop stop-color="white" stop-opacity="0"/>
<stop offset="0.49" stop-color="white"/>
<stop offset="1" stop-color="white" stop-opacity="0"/>
</linearGradient>
<linearGradient id="paint13_linear_54_321" x1="1338.9" y1="554.948" x2="1317.6" y2="568.116" gradientUnits="userSpaceOnUse">
<stop stop-color="white" stop-opacity="0"/>
<stop offset="0.49" stop-color="white"/>
<stop offset="1" stop-color="white" stop-opacity="0"/>
</linearGradient>
<linearGradient id="paint14_linear_54_321" x1="1333.98" y1="572.512" x2="1323.01" y2="550" gradientUnits="userSpaceOnUse">
<stop stop-color="white" stop-opacity="0"/>
<stop offset="0.49" stop-color="white"/>
<stop offset="1" stop-color="white" stop-opacity="0"/>
</linearGradient>
<linearGradient id="paint15_linear_54_321" x1="1105.22" y1="486.237" x2="1086.47" y2="497.774" gradientUnits="userSpaceOnUse">
<stop stop-color="white" stop-opacity="0"/>
<stop offset="0.49" stop-color="white"/>
<stop offset="1" stop-color="white" stop-opacity="0"/>
</linearGradient>
<linearGradient id="paint16_linear_54_321" x1="1101.98" y1="500.512" x2="1091" y2="478" gradientUnits="userSpaceOnUse">
<stop stop-color="white" stop-opacity="0"/>
<stop offset="0.49" stop-color="white"/>
<stop offset="1" stop-color="white" stop-opacity="0"/>
</linearGradient>
<linearGradient id="paint17_linear_54_321" x1="1175.5" y1="631.5" x2="1153" y2="642.5" gradientUnits="userSpaceOnUse">
<stop stop-color="white" stop-opacity="0"/>
<stop offset="0.49" stop-color="white"/>
<stop offset="1" stop-color="white" stop-opacity="0"/>
</linearGradient>
<linearGradient id="paint18_linear_54_321" x1="1171.95" y1="647.032" x2="1161.33" y2="624.831" gradientUnits="userSpaceOnUse">
<stop stop-color="white" stop-opacity="0"/>
<stop offset="0.49" stop-color="white"/>
<stop offset="1" stop-color="white" stop-opacity="0"/>
</linearGradient>
<linearGradient id="paint19_linear_54_321" x1="924.059" y1="517.639" x2="903.71" y2="526.215" gradientUnits="userSpaceOnUse">
<stop stop-color="white" stop-opacity="0"/>
<stop offset="0.49" stop-color="white"/>
<stop offset="1" stop-color="white" stop-opacity="0"/>
</linearGradient>
<linearGradient id="paint20_linear_54_321" x1="918.954" y1="532.012" x2="907.977" y2="509.5" gradientUnits="userSpaceOnUse">
<stop stop-color="white" stop-opacity="0"/>
<stop offset="0.49" stop-color="white"/>
<stop offset="1" stop-color="white" stop-opacity="0"/>
</linearGradient>
<linearGradient id="paint21_linear_54_321" x1="999.764" y1="675.91" x2="983.914" y2="688.88" gradientUnits="userSpaceOnUse">
<stop stop-color="white" stop-opacity="0"/>
<stop offset="0.49" stop-color="white"/>
<stop offset="1" stop-color="white" stop-opacity="0"/>
</linearGradient>
<linearGradient id="paint22_linear_54_321" x1="994.976" y1="691.971" x2="983.555" y2="668.505" gradientUnits="userSpaceOnUse">
<stop stop-color="white" stop-opacity="0"/>
<stop offset="0.49" stop-color="white"/>
<stop offset="1" stop-color="white" stop-opacity="0"/>
</linearGradient>
<linearGradient id="paint23_linear_54_321" x1="723.455" y1="514.366" x2="698.996" y2="508.671" gradientUnits="userSpaceOnUse">
<stop stop-color="white" stop-opacity="0"/>
<stop offset="0.49" stop-color="white"/>
<stop offset="1" stop-color="white" stop-opacity="0"/>
</linearGradient>
<linearGradient id="paint24_linear_54_321" x1="716.954" y1="523.012" x2="705.977" y2="500.5" gradientUnits="userSpaceOnUse">
<stop stop-color="white" stop-opacity="0"/>
<stop offset="0.49" stop-color="white"/>
<stop offset="1" stop-color="white" stop-opacity="0"/>
</linearGradient>
<linearGradient id="paint25_linear_54_321" x1="806.251" y1="688.836" x2="782.519" y2="682.005" gradientUnits="userSpaceOnUse">
<stop stop-color="white" stop-opacity="0"/>
<stop offset="0.49" stop-color="white"/>
<stop offset="1" stop-color="white" stop-opacity="0"/>
</linearGradient>
<linearGradient id="paint26_linear_54_321" x1="799.954" y1="699.011" x2="788.977" y2="676.499" gradientUnits="userSpaceOnUse">
<stop stop-color="white" stop-opacity="0"/>
<stop offset="0.49" stop-color="white"/>
<stop offset="1" stop-color="white" stop-opacity="0"/>
</linearGradient>
<linearGradient id="paint27_linear_54_321" x1="495.625" y1="453.942" x2="474.877" y2="458.078" gradientUnits="userSpaceOnUse">
<stop stop-color="white" stop-opacity="0"/>
<stop offset="0.49" stop-color="white"/>
<stop offset="1" stop-color="white" stop-opacity="0"/>
</linearGradient>
<linearGradient id="paint28_linear_54_321" x1="490.942" y1="463.312" x2="477.828" y2="435.658" gradientUnits="userSpaceOnUse">
<stop stop-color="white" stop-opacity="0"/>
<stop offset="0.55" stop-color="white"/>
<stop offset="1" stop-color="white" stop-opacity="0"/>
</linearGradient>
<linearGradient id="paint29_linear_54_321" x1="591.314" y1="653.969" x2="566.292" y2="652.902" gradientUnits="userSpaceOnUse">
<stop stop-color="white" stop-opacity="0"/>
<stop offset="0.49" stop-color="white"/>
<stop offset="1" stop-color="white" stop-opacity="0"/>
</linearGradient>
<linearGradient id="paint30_linear_54_321" x1="584.952" y1="662.45" x2="573.453" y2="638.325" gradientUnits="userSpaceOnUse">
<stop stop-color="white" stop-opacity="0"/>
<stop offset="0.49" stop-color="white"/>
<stop offset="1" stop-color="white" stop-opacity="0"/>
</linearGradient>
</defs>
</svg>
