<svg width="23" height="22" viewBox="0 0 23 22" fill="none" xmlns="http://www.w3.org/2000/svg">
<path fill-rule="evenodd" clip-rule="evenodd" d="M6.65994 0.308029C6.96652 0.28262 7.27089 0.378094 7.50804 0.574058C7.74518 0.770023 7.8963 1.05094 7.92913 1.35682C7.96195 1.6627 7.87387 1.96929 7.68371 2.21111C7.49354 2.45293 7.21636 2.61081 6.91137 2.65103C6.37289 2.7097 5.83546 2.77046 5.29908 2.83331L5.18908 2.84589C4.71873 2.90135 4.28081 3.11375 3.94606 3.44878C3.61132 3.78382 3.39929 4.22192 3.34423 4.69231L3.15723 6.4036C3.11479 6.70589 2.95673 6.97993 2.7163 7.16803C2.47588 7.35612 2.17185 7.44359 1.86823 7.41203C1.56461 7.38046 1.28508 7.23233 1.08849 6.9988C0.891891 6.76528 0.793572 6.46459 0.814226 6.16003L1.0028 4.42831C1.11721 3.42827 1.56633 2.49627 2.27722 1.78367C2.98812 1.07106 3.91903 0.619702 4.9188 0.502886L5.03194 0.490314C5.56623 0.428505 6.10889 0.367743 6.65994 0.308029ZM16.3619 0.308029C16.2061 0.28748 16.0478 0.298306 15.8962 0.339872C15.7446 0.381437 15.6029 0.452901 15.4793 0.550058C15.3558 0.647215 15.2529 0.768103 15.1768 0.905608C15.1006 1.04311 15.0528 1.19446 15.036 1.35073C15.0192 1.50701 15.0339 1.66506 15.0791 1.81559C15.1243 1.96612 15.1992 2.10608 15.2993 2.22724C15.3995 2.3484 15.5228 2.44831 15.6621 2.52109C15.8014 2.59387 15.9539 2.63805 16.1105 2.65103C16.649 2.7097 17.1859 2.77046 17.7212 2.83331L17.8312 2.84589C18.3016 2.90135 18.7395 3.11375 19.0742 3.44878C19.409 3.78382 19.621 4.22192 19.6761 4.69231L19.8647 6.4036C19.875 6.56178 19.9171 6.71625 19.9885 6.85777C20.0599 6.99929 20.1592 7.12495 20.2803 7.22723C20.4014 7.32951 20.5418 7.40631 20.6933 7.45304C20.8448 7.49976 21.0041 7.51545 21.1618 7.49917C21.3195 7.48288 21.4723 7.43496 21.611 7.35826C21.7497 7.28156 21.8715 7.17766 21.9692 7.05279C22.0668 6.92791 22.1383 6.78463 22.1792 6.6315C22.2202 6.47837 22.2299 6.31855 22.2077 6.1616C22.1469 5.57493 22.084 4.9977 22.0191 4.42989C21.905 3.42956 21.456 2.4972 20.7451 1.78428C20.0342 1.07136 19.1031 0.619772 18.1031 0.502886L17.9915 0.490314C17.4562 0.427457 16.913 0.366172 16.3619 0.306457M7.25708 6.11289C7.68608 6.06731 8.09308 6.03431 8.4938 6.03431C8.89451 6.03431 9.30151 6.06731 9.73051 6.11289C9.83014 6.1259 9.92268 6.17147 9.99373 6.24252C10.0648 6.31357 10.1104 6.40611 10.1234 6.50574C10.1674 6.9316 10.1988 7.3386 10.1988 7.73932C10.1988 8.1416 10.1674 8.54703 10.1249 8.97289C10.1119 9.07275 10.066 9.16547 9.99469 9.23654C9.92333 9.30762 9.83043 9.35305 9.73051 9.36574C9.30151 9.41289 8.89451 9.44431 8.4938 9.44431C8.09308 9.44431 7.68608 9.41289 7.25708 9.36574C7.15745 9.35273 7.06491 9.30715 6.99386 9.23611C6.92282 9.16506 6.87724 9.07252 6.86423 8.97289C6.81888 8.56318 6.7937 8.15149 6.7888 7.73932C6.7888 7.3386 6.82023 6.9316 6.86265 6.50731C6.87574 6.40745 6.92155 6.31474 6.99291 6.24366C7.06427 6.17258 7.15717 6.12558 7.25708 6.11289ZM8.4938 3.67874C7.97051 3.67874 7.46765 3.72274 7.00723 3.77146C6.36961 3.84169 5.77516 4.12774 5.32243 4.58218C4.8697 5.03662 4.5859 5.63216 4.51808 6.27003C4.47094 6.72574 4.43166 7.22389 4.43166 7.74089C4.43166 8.25789 4.47094 8.75603 4.51808 9.21331C4.5859 9.85119 4.8697 10.4467 5.32243 10.9012C5.77516 11.3556 6.36961 11.6417 7.00723 11.7119C7.46765 11.7606 7.97051 11.803 8.4938 11.803C9.01865 11.803 9.51994 11.7606 9.98037 11.7119C10.618 11.6417 11.2124 11.3556 11.6652 10.9012C12.1179 10.4467 12.4017 9.85119 12.4695 9.21331C12.5167 8.7576 12.5559 8.25946 12.5559 7.74089C12.5559 7.22231 12.5167 6.72731 12.4695 6.26846C12.4017 5.63058 12.1179 5.03505 11.6652 4.58061C11.2124 4.12617 10.618 3.84011 9.98037 3.76989C9.48679 3.71342 8.99058 3.68299 8.4938 3.67874ZM15.0624 20.6439C15.0788 20.7979 15.1255 20.9471 15.1996 21.083C15.2738 21.2189 15.374 21.3389 15.4945 21.4361C15.615 21.5333 15.7536 21.6058 15.9021 21.6495C16.0507 21.6931 16.2064 21.707 16.3604 21.6905C16.9114 21.6307 17.4546 21.5689 17.9899 21.505L18.1015 21.4925C19.101 21.3757 20.0318 20.9246 20.7426 20.2123C21.4535 19.5 21.9028 18.5684 22.0175 17.5686C22.0825 16.9987 22.1453 16.4215 22.2061 15.8369C22.2236 15.6821 22.2103 15.5254 22.1669 15.3758C22.1235 15.2263 22.0508 15.0868 21.9532 14.9654C21.8555 14.8441 21.7348 14.7433 21.598 14.6689C21.4612 14.5945 21.3109 14.5479 21.156 14.5319C21.0011 14.516 20.8445 14.5308 20.6954 14.5757C20.5462 14.6206 20.4074 14.6946 20.2871 14.7934C20.1667 14.8923 20.0671 15.014 19.9941 15.1516C19.921 15.2891 19.876 15.4398 19.8615 15.5949C19.8018 16.1669 19.7395 16.7368 19.6745 17.3046C19.6195 17.775 19.4074 18.2131 19.0727 18.5481C18.7379 18.8832 18.3 19.0956 17.8297 19.151L17.7197 19.1636C17.1843 19.2275 16.6469 19.2883 16.1074 19.3459C15.7967 19.3795 15.5121 19.5351 15.3161 19.7785C15.1202 20.0219 15.0289 20.3332 15.0624 20.6439ZM7.95637 20.6439C7.93992 20.7979 7.89328 20.9471 7.81913 21.083C7.74499 21.2189 7.64478 21.3389 7.52423 21.4361C7.40369 21.5333 7.26518 21.6058 7.11661 21.6495C6.96804 21.6931 6.81233 21.707 6.65837 21.6905C6.10732 21.6307 5.56413 21.5689 5.0288 21.505L4.91566 21.4925C3.91669 21.375 2.98668 20.9236 2.27645 20.2114C1.56621 19.4992 1.1174 18.5679 1.0028 17.5686C0.938893 16.9987 0.876036 16.4215 0.814226 15.8369C0.794368 15.5327 0.893176 15.2326 1.0899 14.9996C1.28662 14.7667 1.56594 14.6191 1.86921 14.5878C2.17247 14.5565 2.47608 14.6439 2.71625 14.8317C2.95643 15.0195 3.11448 15.293 3.15723 15.5949C3.21799 16.1669 3.28085 16.7368 3.3458 17.3046C3.40079 17.7748 3.61259 18.2127 3.94702 18.5477C4.28146 18.8827 4.71902 19.0952 5.18908 19.151L5.29908 19.1636C5.83546 19.2275 6.37289 19.2883 6.91137 19.3459C7.06534 19.3623 7.21456 19.409 7.35049 19.4831C7.48643 19.5573 7.60643 19.6575 7.70362 19.778C7.80081 19.8986 7.8733 20.0371 7.91694 20.1856C7.96058 20.3342 7.97294 20.4899 7.95637 20.6439ZM7.3168 14.212C7.3168 13.8995 7.19263 13.5997 6.9716 13.3787C6.75058 13.1576 6.4508 13.0335 6.13823 13.0335C5.82565 13.0335 5.52588 13.1576 5.30485 13.3787C5.08383 13.5997 4.95966 13.8995 4.95966 14.212V16.6132C4.95966 17.2637 5.48766 17.7917 6.13823 17.7917H8.49537C8.80795 17.7917 9.10772 17.6676 9.32874 17.4465C9.54977 17.2255 9.67394 16.9257 9.67394 16.6132C9.67394 16.3006 9.54977 16.0008 9.32874 15.7798C9.10772 15.5588 8.80795 15.4346 8.49537 15.4346H7.3168V14.212ZM17.2938 17.7917C16.9812 17.7917 16.6814 17.6676 16.4604 17.4465C16.2394 17.2255 16.1152 16.9257 16.1152 16.6132V15.3906H14.9367C14.6241 15.3906 14.3243 15.2664 14.1033 15.0454C13.8823 14.8244 13.7581 14.5246 13.7581 14.212C13.7581 13.8995 13.8823 13.5997 14.1033 13.3787C14.3243 13.1576 14.6241 13.0335 14.9367 13.0335H17.2938C17.6064 13.0335 17.9061 13.1576 18.1272 13.3787C18.3482 13.5997 18.4724 13.8995 18.4724 14.212V16.6132C18.4724 16.9257 18.3482 17.2255 18.1272 17.4465C17.9061 17.6676 17.6064 17.7917 17.2938 17.7917ZM17.3881 11.8046C17.7007 11.8046 18.0004 11.6804 18.2215 11.4594C18.4425 11.2384 18.5667 10.9386 18.5667 10.626C18.5667 10.3135 18.4425 10.0137 18.2215 9.79265C18.0004 9.57163 17.7007 9.44746 17.3881 9.44746H15.0309C14.7184 9.44746 14.4186 9.57163 14.1976 9.79265C13.9765 10.0137 13.8524 10.3135 13.8524 10.626C13.8524 10.9386 13.9765 11.2384 14.1976 11.4594C14.4186 11.6804 14.7184 11.8046 15.0309 11.8046H17.3881ZM11.8802 17.7697C11.5676 17.7697 11.2679 17.6456 11.0469 17.4245C10.8258 17.2035 10.7017 16.9037 10.7017 16.5912V14.234C10.7017 13.9215 10.8258 13.6217 11.0469 13.4007C11.2679 13.1796 11.5676 13.0555 11.8802 13.0555C12.1928 13.0555 12.4926 13.1796 12.7136 13.4007C12.9346 13.6217 13.0588 13.9215 13.0588 14.234V16.5912C13.0588 16.9037 12.9346 17.2035 12.7136 17.4245C12.4926 17.6456 12.1928 17.7697 11.8802 17.7697ZM16.1152 7.02431C16.1152 7.33689 16.2394 7.63667 16.4604 7.85769C16.6814 8.07872 16.9812 8.20289 17.2938 8.20289C17.6064 8.20289 17.9061 8.07872 18.1272 7.85769C18.3482 7.63667 18.4724 7.33689 18.4724 7.02431V5.33817C18.4724 5.0256 18.3482 4.72582 18.1272 4.5048C17.9061 4.28377 17.6064 4.1596 17.2938 4.1596H14.9367C14.6241 4.1596 14.3243 4.28377 14.1033 4.5048C13.8823 4.72582 13.7581 5.0256 13.7581 5.33817C13.7581 5.65075 13.8823 5.95052 14.1033 6.17155C14.3243 6.39257 14.6241 6.51674 14.9367 6.51674H16.1152V7.02431Z" fill="#333333"/>
</svg>
