<svg width="22" height="22" viewBox="0 0 22 22" fill="none" xmlns="http://www.w3.org/2000/svg">
<path d="M5.729 2.75C5.18199 2.75 4.65739 2.9673 4.2706 3.35409C3.8838 3.74089 3.6665 4.26549 3.6665 4.8125V7.10417C3.6665 7.37502 3.71985 7.64322 3.8235 7.89345C3.92715 8.14368 4.07908 8.37105 4.2706 8.56257C4.65739 8.94937 5.18199 9.16667 5.729 9.16667H14.4373C14.7082 9.16667 14.9764 9.11332 15.2266 9.00967C15.4769 8.90602 15.7042 8.7541 15.8957 8.56257C16.0873 8.37105 16.2392 8.14368 16.3428 7.89345C16.4465 7.64322 16.4998 7.37502 16.4998 7.10417V4.8125C16.4998 4.26549 16.2825 3.74089 15.8957 3.35409C15.509 2.9673 14.9843 2.75 14.4373 2.75H5.729ZM5.0415 4.8125C5.0415 4.63016 5.11394 4.4553 5.24287 4.32636C5.3718 4.19743 5.54667 4.125 5.729 4.125H14.4373C14.6197 4.125 14.7945 4.19743 14.9235 4.32636C15.0524 4.4553 15.1248 4.63016 15.1248 4.8125V7.10417C15.1248 7.2865 15.0524 7.46137 14.9235 7.5903C14.7945 7.71923 14.6197 7.79167 14.4373 7.79167H5.729C5.54667 7.79167 5.3718 7.71923 5.24287 7.5903C5.11394 7.46137 5.0415 7.2865 5.0415 7.10417V4.8125ZM7.97484 14.6667C7.62009 14.6667 7.33317 14.9747 7.33317 15.3542C7.33317 15.7337 7.62009 16.0417 7.97484 16.0417H12.1915C12.5463 16.0417 12.8332 15.7337 12.8332 15.3542C12.8332 14.9747 12.5463 14.6667 12.1915 14.6667H7.97484ZM15.9068 15.0746L15.8398 15.1516C15.7234 15.268 15.5691 15.3388 15.4049 15.3511C15.2407 15.3634 15.0776 15.3163 14.9452 15.2185L14.8682 15.1516L13.0348 13.3183C12.9184 13.2018 12.8476 13.0475 12.8353 12.8833C12.8231 12.7192 12.8701 12.556 12.9679 12.4236L13.0348 12.3466L14.8682 10.5132C14.991 10.3914 15.1553 10.3203 15.3282 10.3142C15.5011 10.3081 15.67 10.3675 15.8011 10.4804C15.9322 10.5933 16.0159 10.7516 16.0355 10.9235C16.0551 11.0954 16.0091 11.2684 15.9068 11.4079L15.8398 11.4849L15.1808 12.1458H16.5558C16.8393 12.1457 17.1127 12.0405 17.3231 11.8506C17.5336 11.6606 17.6661 11.3994 17.6952 11.1173L17.7016 11V8.9375C17.7016 8.76331 17.7678 8.59564 17.8867 8.46836C18.0056 8.34108 18.1684 8.26368 18.3422 8.25181C18.516 8.23994 18.6878 8.29447 18.8229 8.4044C18.9581 8.51432 19.0464 8.67144 19.0702 8.844L19.0766 8.9375V11C19.0766 11.6421 18.8316 12.26 18.3916 12.7276C17.9516 13.1952 17.3497 13.4773 16.7088 13.5162L16.5558 13.5208H15.1817L15.8398 14.1799C15.9563 14.2963 16.0271 14.4506 16.0393 14.6148C16.0516 14.779 16.0046 14.9422 15.9068 15.0746ZM16.4998 17.6458V15.7887L16.4879 15.7997C16.1167 16.1718 15.6079 16.3222 15.1248 16.2534V17.6458C15.1248 17.8282 15.0524 18.003 14.9235 18.132C14.7945 18.2609 14.6197 18.3333 14.4373 18.3333H5.729C5.54667 18.3333 5.3718 18.2609 5.24287 18.132C5.11394 18.003 5.0415 17.8282 5.0415 17.6458V13.0625C5.0415 12.8802 5.11394 12.7053 5.24287 12.5764C5.3718 12.4474 5.54667 12.375 5.729 12.375H11.9834C12.0348 12.199 12.1182 12.0303 12.2309 11.8772L12.252 11.8498L12.362 11.7214L13.0843 11H5.729C5.18199 11 4.65739 11.2173 4.2706 11.6041C3.8838 11.9909 3.6665 12.5155 3.6665 13.0625V17.6458C3.6665 18.1928 3.8838 18.7174 4.2706 19.1042C4.65739 19.491 5.18199 19.7083 5.729 19.7083H14.4373C14.9843 19.7083 15.509 19.491 15.8957 19.1042C16.2825 18.7174 16.4998 18.1928 16.4998 17.6458Z" fill="#333333"/>
</svg>
