<svg width="23" height="22" viewBox="0 0 23 22" fill="none" xmlns="http://www.w3.org/2000/svg">
<path d="M13.3335 10.0833V7.33331C17.5135 6.80165 20.6668 4.49165 20.6668 1.83331H2.3335C2.3335 4.49165 5.48683 6.80165 9.66683 7.33331V10.0833C6.2935 10.7525 2.3335 13.3925 2.3335 20.1666H7.8335V18.3333H4.286C5.1385 12.0725 10.3818 11.7333 11.5002 11.7333C12.6185 11.7333 17.8618 12.0725 18.7143 18.3333H15.1668V20.1666H20.6668C20.6668 13.3925 16.7068 10.7525 13.3335 10.0833ZM17.7977 3.66665C16.5418 4.75748 14.2502 5.60998 11.5002 5.60998C8.75016 5.60998 6.4585 4.75748 5.20266 3.66665H17.7977ZM11.5002 20.1666C10.4918 20.1666 9.66683 19.3416 9.66683 18.3333C9.66683 17.8291 9.8685 17.3708 10.2077 17.0408C10.941 16.3075 15.1668 14.6666 15.1668 14.6666C15.1668 14.6666 13.526 18.8925 12.7927 19.6258C12.4627 19.965 12.0043 20.1666 11.5002 20.1666Z" fill="#333333"/>
</svg>
