<svg width="169" height="31" viewBox="0 0 169 31" fill="none" xmlns="http://www.w3.org/2000/svg">
<path d="M33.9452 8.87544C27.8353 8.87544 23.0612 13.5068 23.0612 19.7067C23.0612 25.9068 27.7146 30.4985 33.9452 30.4985C40.1758 30.4985 44.9101 25.8275 44.9101 19.6671C44.9101 13.5464 40.2567 8.87544 33.9452 8.87544ZM33.9865 26.0303C30.507 26.0303 27.9574 23.332 27.9574 19.7083C27.9574 16.0435 30.4658 13.3467 33.9452 13.3467C37.4658 13.3467 40.014 16.0846 40.014 19.7083C40.014 23.332 37.4658 26.0303 33.9865 26.0303ZM46.2445 13.5875H49.2794V30.0975H54.1344V9.27791H46.2445V13.5875ZM10.8428 13.3452C13.3924 13.3452 15.4153 14.9154 16.1833 17.2508H21.3223C20.391 12.2582 16.2642 8.87544 10.884 8.87544C4.77406 8.87544 0 13.5068 0 19.7083C0 25.9098 4.65346 30.5 10.884 30.5C16.1436 30.5 20.3513 27.1172 21.2825 22.0834H16.1833C15.455 24.4189 13.4321 26.0303 10.8825 26.0303C7.36187 26.0303 4.89466 23.332 4.89466 19.7083C4.89621 16.0435 7.32371 13.3452 10.8428 13.3452ZM138.492 17.6945L134.932 17.1716C133.233 16.9307 132.019 16.3667 132.019 15.0373C132.019 13.5875 133.598 12.8634 135.741 12.8634C138.088 12.8634 139.586 13.8696 139.909 15.5206H144.602C144.076 11.3329 140.839 8.87694 135.863 8.87694C130.724 8.87694 127.326 11.4945 127.326 15.1989C127.326 18.7418 129.552 20.7968 134.042 21.4401L137.602 21.963C139.343 22.2038 140.314 22.8898 140.314 24.178C140.314 25.829 138.615 26.5135 136.268 26.5135C133.394 26.5135 131.776 25.3458 131.534 23.5744H126.759C127.205 27.6416 130.401 30.5 136.227 30.5C141.528 30.5 145.047 28.0837 145.047 23.9356C145.047 20.2312 142.498 18.2982 138.492 17.6945ZM51.7069 0.70123C49.9268 0.70123 48.5912 1.98941 48.5912 3.76084C48.5912 5.53227 49.9254 6.82044 51.7069 6.82044C53.4871 6.82044 54.8231 5.53227 54.8231 3.76084C54.8231 1.98941 53.4871 0.70123 51.7069 0.70123ZM122.956 16.4063C122.956 11.8969 120.205 8.87694 114.379 8.87694C108.877 8.87694 105.802 11.6561 105.194 15.9245H110.01C110.252 14.2736 111.547 12.9046 114.298 12.9046C116.767 12.9046 117.981 13.9915 117.981 15.3209C117.981 17.0527 115.755 17.4948 113.004 17.7768C109.281 18.1792 104.669 19.4674 104.669 24.3C104.669 28.0456 107.461 30.4603 111.912 30.4603C115.391 30.4603 117.576 29.0106 118.669 26.7148C118.831 28.7682 120.369 30.0975 122.514 30.0975H125.346V25.7894H122.958V16.4063H122.956ZM118.182 21.6413C118.182 24.4204 115.755 26.4739 112.8 26.4739C110.979 26.4739 109.442 25.7086 109.442 24.0988C109.442 22.0453 111.91 21.4813 114.176 21.2404C116.361 21.0392 117.575 20.5559 118.182 19.629V21.6413ZM92.4096 8.87544C89.6981 8.87544 87.4326 10.0035 85.8144 11.8954V0.5H80.9594V30.0975H85.7332V27.3596C87.3514 29.3322 89.6587 30.5 92.4096 30.5C98.2354 30.5 102.646 25.9098 102.646 19.7083C102.646 13.5068 98.1547 8.87544 92.4096 8.87544ZM91.6815 26.0303C88.202 26.0303 85.6525 23.332 85.6525 19.7083C85.6525 16.0846 88.2419 13.3467 91.721 13.3467C95.2418 13.3467 97.7087 16.045 97.7087 19.7083C97.7087 23.332 95.1606 26.0303 91.6815 26.0303ZM69.3468 8.87544C66.1912 8.87544 64.127 10.1636 62.9135 11.9762V9.27791H58.098V30.096H62.9529V18.7814C62.9529 15.5998 64.9758 13.3452 67.9699 13.3452C70.7622 13.3452 72.501 15.3178 72.501 18.1777V30.0975H77.356V17.8164C77.3578 12.5799 74.6477 8.87544 69.3468 8.87544ZM168.19 19.0238C168.19 13.0647 163.821 8.87694 157.953 8.87694C151.723 8.87694 147.151 13.5479 147.151 19.7083C147.151 26.1919 152.046 30.5 158.035 30.5C163.092 30.5 167.057 27.5197 168.068 23.2923H163.01C162.282 25.1445 160.502 26.1919 158.114 26.1919C154.998 26.1919 152.651 24.2588 152.126 20.876H168.189V19.0238H168.19ZM152.41 17.4125C153.18 14.5129 155.364 13.1043 157.873 13.1043C160.624 13.1043 162.728 14.6745 163.213 17.4125H152.41Z" fill="#0052FF"/>
</svg>
