<svg width="205" height="60" viewBox="0 0 205 60" fill="none" xmlns="http://www.w3.org/2000/svg">
<g clip-path="url(#clip0_331_1737)">
<path d="M56.5819 17.5165H66.1213C72.2029 17.5165 77.2268 21.031 77.2268 29.0553V30.7415C77.2268 38.8268 72.5283 42.4632 66.3043 42.4632H56.5819V17.5165ZM61.9109 22.0467V37.9126H65.9992C69.457 37.9126 71.7757 35.6577 71.7757 30.6399V29.3194C71.7757 24.3017 69.335 22.0467 65.8162 22.0467H61.9109ZM80.054 22.2905H84.3254L85.017 26.9832C85.8305 23.7938 87.9052 22.0873 91.6681 22.0873H92.9902V27.4708H90.7935C86.4611 27.4708 85.4034 28.9741 85.4034 33.2402V42.5241H80.1354V22.2905H80.054ZM94.0478 32.8136V32.2448C94.0478 25.4799 98.3802 21.7826 104.279 21.7826C110.299 21.7826 114.51 25.4799 114.51 32.2448V32.8136C114.51 39.4566 110.421 43.032 104.279 43.032C97.7497 42.971 94.0478 39.4769 94.0478 32.8136ZM109.12 32.7527V32.2448C109.12 28.4865 107.228 26.2316 104.218 26.2316C101.268 26.2316 99.3158 28.3037 99.3158 32.2448V32.7527C99.3158 36.389 101.207 38.4611 104.218 38.4611C107.228 38.4002 109.12 36.389 109.12 32.7527ZM117.276 22.2905H121.669L122.178 26.1097C123.235 23.55 125.493 21.7826 128.829 21.7826C133.975 21.7826 137.372 25.4799 137.372 32.326V32.8949C137.372 39.5378 133.609 43.0523 128.829 43.0523C125.636 43.0523 123.439 41.6099 122.361 39.294V49.5124H117.215L117.276 22.2905ZM132.022 32.7527V32.3057C132.022 28.2834 129.948 26.2925 127.181 26.2925C124.232 26.2925 122.279 28.5475 122.279 32.3057V32.6917C122.279 36.2671 124.171 38.5221 127.12 38.5221C130.151 38.4611 132.022 36.5312 132.022 32.7527ZM145.162 38.7862L144.714 42.4835H140.199V15.5256H145.345V25.8659C146.484 23.225 148.742 21.7826 151.935 21.7826C156.776 21.8436 160.356 25.1752 160.356 31.8791V32.5089C160.356 39.2128 156.959 43.0523 151.813 43.0523C148.416 42.971 146.219 41.4068 145.162 38.7862ZM154.945 32.5089V32.001C154.945 28.3037 152.932 26.2316 150.104 26.2316C147.216 26.2316 145.202 28.5475 145.202 32.0619V32.5089C145.202 36.2671 147.155 38.4611 150.043 38.4611C153.135 38.4611 154.945 36.5312 154.945 32.5089ZM162.613 32.8136V32.2448C162.613 25.4799 166.946 21.7826 172.844 21.7826C178.865 21.7826 183.075 25.4799 183.075 32.2448V32.8136C183.075 39.4566 178.926 43.032 172.844 43.032C166.315 42.971 162.613 39.4769 162.613 32.8136ZM177.726 32.7527V32.2448C177.726 28.4865 175.834 26.2316 172.824 26.2316C169.875 26.2316 167.922 28.3037 167.922 32.2448V32.7527C167.922 36.389 169.814 38.4611 172.824 38.4611C175.855 38.4002 177.726 36.389 177.726 32.7527ZM189.97 32.001L182.872 22.2905H188.953L193.042 28.3646L197.191 22.2905H203.212L196.011 31.9401L203.598 42.4835H197.638L193.001 35.7796L188.486 42.4835H182.262L189.97 32.001Z" fill="#19323C"/>
<path d="M23.7941 17.5165L11.997 25.033L23.7941 32.5495L11.997 40.066L0.199951 32.5089L11.997 24.9924L0.199951 17.5165L11.997 10L23.7941 17.5165ZM11.936 42.4835L23.7331 34.967L35.5302 42.4835L23.7331 50L11.936 42.4835ZM23.7941 32.5089L35.5912 24.9924L23.7941 17.5165L35.5302 10L47.3273 17.5165L35.5302 25.033L47.3273 32.5495L35.5302 40.066L23.7941 32.5089Z" fill="#0061FF"/>
</g>
<defs>
<clipPath id="clip0_331_1737">
<rect width="204" height="60" fill="white" transform="translate(0.199951)"/>
</clipPath>
</defs>
</svg>
