<svg width="22" height="22" viewBox="0 0 22 22" fill="none" xmlns="http://www.w3.org/2000/svg">
<g clip-path="url(#clip0_159_1450)">
<path d="M21.8889 20.9815C21.8889 21.2221 21.7933 21.4529 21.6231 21.6231C21.4529 21.7933 21.2221 21.8889 20.9815 21.8889H2.83334C1.33248 21.8889 0.111115 20.6675 0.111115 19.1666V1.01849C0.111115 0.777832 0.206716 0.547029 0.376888 0.376857C0.54706 0.206686 0.777863 0.111084 1.01852 0.111084C1.25918 0.111084 1.48998 0.206686 1.66016 0.376857C1.83033 0.547029 1.92593 0.777832 1.92593 1.01849V19.1666C1.92593 19.6666 2.33336 20.074 2.83334 20.074H20.9815C21.2221 20.074 21.4529 20.1696 21.6231 20.3398C21.7933 20.51 21.8889 20.7408 21.8889 20.9815ZM19.1667 4.64812H15.537C15.2964 4.64812 15.0656 4.74372 14.8954 4.9139C14.7252 5.08407 14.6296 5.31487 14.6296 5.55553C14.6296 5.79619 14.7252 6.02699 14.8954 6.19716C15.0656 6.36733 15.2964 6.46294 15.537 6.46294H18.7701L14.3629 10.7341C14.1903 10.8992 13.9606 10.9914 13.7218 10.9914C13.4829 10.9914 13.2533 10.8992 13.0807 10.7341C12.7082 10.4609 12.3334 10.1908 11.9564 9.92379C10.9238 8.95014 9.16432 8.98644 8.17978 9.97007L4.01841 13.9754C3.8449 14.1423 3.74479 14.3713 3.74011 14.612C3.73543 14.8527 3.82656 15.0854 3.99346 15.2589C4.16035 15.4324 4.38934 15.5325 4.63005 15.5372C4.87076 15.5419 5.10347 15.4507 5.27699 15.2838L9.45106 11.2658C9.62365 11.1007 9.85329 11.0086 10.0921 11.0086C10.331 11.0086 10.5606 11.1007 10.7332 11.2658C10.7704 11.3021 11.8575 12.0762 11.8575 12.0762C12.891 13.0507 14.6487 13.0162 15.6359 12.0272L20.0732 7.72605V10.9991C20.0732 11.2397 20.1688 11.4705 20.3389 11.6407C20.5091 11.8109 20.7399 11.9065 20.9806 11.9065C21.2212 11.9065 21.452 11.8109 21.6222 11.6407C21.7924 11.4705 21.888 11.2397 21.888 10.9991V7.36944C21.888 5.86858 20.6666 4.64721 19.1658 4.64721L19.1667 4.64812Z" fill="#0C0A08"/>
</g>
<defs>
<clipPath id="clip0_159_1450">
<rect width="21.7778" height="21.7778" fill="white" transform="translate(0.111115 0.111084)"/>
</clipPath>
</defs>
</svg>
