<svg width="22" height="22" viewBox="0 0 22 22" fill="none" xmlns="http://www.w3.org/2000/svg">
<g clip-path="url(#clip0_159_1469)">
<path d="M11 0.111084C8.84639 0.111084 6.74113 0.749706 4.95047 1.94619C3.1598 3.14268 1.76414 4.84329 0.939987 6.83298C0.115833 8.82266 -0.0998038 11.0121 0.320346 13.1243C0.740497 15.2365 1.77756 17.1767 3.3004 18.6996C4.82324 20.2224 6.76345 21.2595 8.87569 21.6796C10.9879 22.0998 13.1773 21.8841 15.167 21.06C17.1567 20.2358 18.8573 18.8402 20.0538 17.0495C21.2503 15.2588 21.8889 13.1536 21.8889 11C21.8858 8.11302 20.7376 5.3452 18.6962 3.30381C16.6548 1.26243 13.887 0.114206 11 0.111084ZM20.0741 11C20.0752 12.7782 19.5505 14.5171 18.566 15.998L17.4843 14.9154C17.3995 14.8304 17.3519 14.7152 17.3519 14.5951V13.7222C17.3519 13.0002 17.0651 12.3078 16.5545 11.7973C16.044 11.2868 15.3516 11 14.6296 11H11.9074C11.6668 11 11.436 10.9044 11.2658 10.7342C11.0956 10.564 11 10.3332 11 10.0926V9.63886C11 9.51853 11.0478 9.40313 11.1329 9.31804C11.218 9.23296 11.3334 9.18516 11.4537 9.18516C12.0554 9.18516 12.6324 8.94615 13.0578 8.52073C13.4832 8.09529 13.7222 7.51829 13.7222 6.91664V6.00923C13.7222 5.8889 13.77 5.7735 13.8551 5.68842C13.9402 5.60333 14.0556 5.55553 14.1759 5.55553H15.4272C16.0283 5.55382 16.6044 5.31515 17.0306 4.89131L17.3727 4.54921C18.2286 5.39136 18.9082 6.39546 19.372 7.50298C19.8358 8.6105 20.0745 9.79927 20.0741 11ZM1.9704 11.8738L4.83599 14.7394C5.08816 14.9932 5.38822 15.1944 5.71876 15.3313C6.0493 15.4682 6.40374 15.5381 6.76151 15.537H9.18519C9.42585 15.537 9.65666 15.6326 9.82683 15.8028C9.997 15.973 10.0926 16.2038 10.0926 16.4444V20.0278C8.00574 19.8147 6.05681 18.8864 4.57641 17.4002C3.096 15.914 2.17527 13.9615 1.9704 11.8738ZM11.9074 20.0278V16.4444C11.9074 15.7224 11.6206 15.03 11.1101 14.5195C10.5996 14.009 9.90717 13.7222 9.18519 13.7222H6.76151C6.6422 13.7223 6.52405 13.6989 6.41381 13.6532C6.30357 13.6076 6.20341 13.5407 6.11906 13.4563L2.07384 9.4111C2.33352 7.93493 2.9556 6.54632 3.88428 5.36986C4.81295 4.19339 6.01917 3.26587 7.39469 2.67053C8.77022 2.07518 10.272 1.83063 11.7654 1.95882C13.2587 2.08701 14.6969 2.58392 15.9508 3.40497L15.7476 3.60823C15.6621 3.69247 15.5472 3.74 15.4272 3.74071H14.1759C13.5743 3.74071 12.9973 3.97972 12.5718 4.40515C12.1464 4.83058 11.9074 5.40758 11.9074 6.00923V6.91664C11.9074 7.03697 11.8596 7.15237 11.7745 7.23746C11.6894 7.32254 11.574 7.37034 11.4537 7.37034C10.8521 7.37034 10.2751 7.60935 9.84963 8.03478C9.4242 8.46021 9.18519 9.03721 9.18519 9.63886V10.0926C9.18519 10.8145 9.472 11.507 9.98251 12.0175C10.493 12.528 11.1854 12.8148 11.9074 12.8148H14.6296C14.8703 12.8148 15.1011 12.9104 15.2713 13.0806C15.4414 13.2507 15.537 13.4815 15.537 13.7222V14.5951C15.5388 15.1962 15.7774 15.7723 16.2013 16.1985L17.4145 17.4117C15.9367 18.8946 13.9905 19.8191 11.9074 20.0278Z" fill="#0C0A08"/>
</g>
<defs>
<clipPath id="clip0_159_1469">
<rect width="21.7778" height="21.7778" fill="white" transform="translate(0.111115 0.111084)"/>
</clipPath>
</defs>
</svg>
