<svg width="23" height="22" viewBox="0 0 23 22" fill="none" xmlns="http://www.w3.org/2000/svg">
<g clip-path="url(#clip0_159_1459)">
<path d="M1.51852 8.73145C1.51852 8.12981 1.75753 7.5528 2.18296 7.12737C2.60839 6.70194 3.18539 6.46294 3.78704 6.46294C4.38869 6.46294 4.9657 6.70194 5.39113 7.12737C5.81656 7.5528 6.05556 8.12981 6.05556 8.73145C6.05556 9.3331 5.81656 9.91011 5.39113 10.3355C4.9657 10.761 4.38869 11 3.78704 11C3.18539 11 2.60839 10.761 2.18296 10.3355C1.75753 9.91011 1.51852 9.3331 1.51852 8.73145ZM19.213 11C19.8146 11 20.3916 10.761 20.8171 10.3355C21.2425 9.91011 21.4815 9.3331 21.4815 8.73145C21.4815 8.12981 21.2425 7.5528 20.8171 7.12737C20.3916 6.70194 19.8146 6.46294 19.213 6.46294C18.6113 6.46294 18.0343 6.70194 17.6089 7.12737C17.1835 7.5528 16.9444 8.12981 16.9444 8.73145C16.9444 9.3331 17.1835 9.91011 17.6089 10.3355C18.0343 10.761 18.6113 11 19.213 11ZM22.3889 14.7267V20.074C22.3889 21.0749 21.5749 21.8889 20.5741 21.8889H18.7593C17.7584 21.8889 16.9444 21.0749 16.9444 20.074V15.6114L16.1496 16.2466C15.9889 16.3753 15.7892 16.4454 15.5833 16.4453H13.3148C13.0742 16.4453 12.8434 16.3497 12.6732 16.1796C12.503 16.0094 12.4074 15.7786 12.4074 15.5379C12.4074 15.2973 12.503 15.0665 12.6732 14.8963C12.8434 14.7261 13.0742 14.6305 13.3148 14.6305H15.2648C15.2648 14.6305 17.9989 12.479 18.0597 12.45C18.3513 12.2328 18.6835 12.0761 19.0366 11.9893C19.3898 11.9025 19.7567 11.8873 20.1158 11.9446C21.4116 12.1551 22.3889 13.352 22.3889 14.7267ZM20.5741 14.7267C20.5741 14.2394 20.2456 13.8039 19.8255 13.7349C19.2883 13.6287 18.7466 14.0806 18.7593 14.6296V20.074H20.5741V14.7267ZM13.3148 18.2592H9.68519C8.68432 18.2592 7.87037 19.0732 7.87037 20.074V20.9815C7.87037 21.2221 7.96598 21.4529 8.13615 21.6231C8.30632 21.7933 8.53712 21.8889 8.77778 21.8889C9.01844 21.8889 9.24924 21.7933 9.41942 21.6231C9.58959 21.4529 9.68519 21.2221 9.68519 20.9815V20.074H13.3148V20.9815C13.3148 21.2221 13.4104 21.4529 13.5806 21.6231C13.7508 21.7933 13.9816 21.8889 14.2222 21.8889C14.4629 21.8889 14.6937 21.7933 14.8639 21.6231C15.034 21.4529 15.1296 21.2221 15.1296 20.9815V20.074C15.1296 19.0732 14.3157 18.2592 13.3148 18.2592ZM9.68519 16.4444H7.41667C7.21082 16.4445 7.01108 16.3744 6.85045 16.2457L6.05556 15.6105V20.0731C6.05556 21.074 5.24161 21.888 4.24074 21.888H2.42593C1.42506 21.888 0.611115 21.074 0.611115 20.0731V14.7258C0.611115 13.3502 1.58748 12.1542 2.88236 11.9437C3.57681 11.8317 4.28759 11.9944 4.86413 12.3974C4.93763 12.4291 7.73517 14.6296 7.73517 14.6296H9.68519C9.92585 14.6296 10.1567 14.7252 10.3268 14.8954C10.497 15.0655 10.5926 15.2964 10.5926 15.537C10.5926 15.7777 10.497 16.0085 10.3268 16.1786C10.1567 16.3488 9.92585 16.4444 9.68519 16.4444ZM4.24074 14.6296C4.25345 14.0797 3.71173 13.6287 3.17363 13.7349C2.75441 13.8039 2.42593 14.2394 2.42593 14.7267V20.074H4.24074V14.6296ZM7.91484 6.79595C8.14804 5.29601 9.35217 4.06375 10.843 3.7997C11.3685 3.70441 11.9084 3.72564 12.4247 3.86189C12.941 3.99815 13.4211 4.2461 13.8311 4.58823C14.278 4.96109 14.6283 5.43617 14.8526 5.97321C15.0768 6.51025 15.1682 7.09343 15.1192 7.67332C15.0701 8.25322 14.882 8.81274 14.5707 9.30448C14.2595 9.79622 13.8343 10.2057 13.3312 10.4982C13.1905 10.5763 13.073 10.6902 12.9906 10.8284C12.9083 10.9665 12.8639 11.124 12.862 11.2849V11.9074C12.862 12.148 12.7664 12.3788 12.5962 12.549C12.4261 12.7192 12.1953 12.8148 11.9546 12.8148H11.0472C10.8065 12.8148 10.5757 12.7192 10.4056 12.549C10.2354 12.3788 10.1398 12.148 10.1398 11.9074V11.2885C10.1398 10.9718 9.9438 10.6633 9.61532 10.4637C8.99995 10.0899 8.50973 9.5414 8.20707 8.88809C7.90441 8.23478 7.803 7.50618 7.91574 6.79505L7.91484 6.79595ZM10.5563 8.91294C10.9438 9.14795 11.2604 9.45194 11.4946 9.80129C11.7306 9.44404 12.0457 9.14596 12.4156 8.93018C12.6901 8.77299 12.9179 8.54578 13.0759 8.27174C13.2339 7.9977 13.3163 7.68665 13.3148 7.37034C13.3357 6.26331 12.2559 5.35771 11.1597 5.58638C10.432 5.71523 9.82221 6.34134 9.70787 7.07453C9.59263 7.82042 9.91658 8.52638 10.5563 8.91384V8.91294ZM11.5 2.83331C11.7407 2.83331 11.9715 2.7377 12.1416 2.56753C12.3118 2.39736 12.4074 2.16656 12.4074 1.9259V1.01849C12.4074 0.777832 12.3118 0.547029 12.1416 0.376857C11.9715 0.206686 11.7407 0.111084 11.5 0.111084C11.2593 0.111084 11.0285 0.206686 10.8584 0.376857C10.6882 0.547029 10.5926 0.777832 10.5926 1.01849V1.9259C10.5926 2.16656 10.6882 2.39736 10.8584 2.56753C11.0285 2.7377 11.2593 2.83331 11.5 2.83331ZM15.1296 3.74071C15.2488 3.74084 15.3668 3.71741 15.4769 3.67179C15.587 3.62616 15.687 3.55923 15.7712 3.47484L16.4064 2.83966C16.5765 2.66951 16.6721 2.43874 16.6721 2.19812C16.6721 1.9575 16.5765 1.72673 16.4064 1.55658C16.2362 1.38644 16.0054 1.29085 15.7648 1.29085C15.5242 1.29085 15.2934 1.38644 15.1233 1.55658L14.4881 2.19177C14.3608 2.3185 14.274 2.4802 14.2388 2.65634C14.2035 2.83249 14.2214 3.01513 14.2901 3.18109C14.3589 3.34706 14.4754 3.48885 14.6248 3.58849C14.7743 3.68813 14.95 3.74111 15.1296 3.74071ZM7.22884 3.47484C7.39898 3.64499 7.62975 3.74058 7.87037 3.74058C8.111 3.74058 8.34176 3.64499 8.51191 3.47484C8.68206 3.3047 8.77765 3.07393 8.77765 2.83331C8.77765 2.59268 8.68206 2.36192 8.51191 2.19177L7.87673 1.55658C7.79248 1.47234 7.69246 1.40551 7.58239 1.35991C7.47231 1.31432 7.35433 1.29085 7.23519 1.29085C7.11604 1.29085 6.99807 1.31432 6.88799 1.35991C6.77792 1.40551 6.6779 1.47234 6.59365 1.55658C6.5094 1.64083 6.44257 1.74085 6.39698 1.85092C6.35139 1.961 6.32792 2.07898 6.32792 2.19812C6.32792 2.31727 6.35139 2.43524 6.39698 2.54532C6.44257 2.65539 6.5094 2.75541 6.59365 2.83966L7.22884 3.47484Z" fill="#0C0A08"/>
</g>
<defs>
<clipPath id="clip0_159_1459">
<rect width="21.7778" height="21.7778" fill="white" transform="translate(0.611115 0.111084)"/>
</clipPath>
</defs>
</svg>
