<svg width="23" height="22" viewBox="0 0 23 22" fill="none" xmlns="http://www.w3.org/2000/svg">
<path d="M22.1227 20.3398L16.7118 14.929C18.0401 13.3117 18.7657 11.2834 18.7644 9.19053C18.7644 4.18709 14.6937 0.116455 9.69029 0.116455C4.68684 0.116455 0.616211 4.18709 0.616211 9.19053C0.616211 14.194 4.68684 18.2646 9.69029 18.2646C11.8662 18.2646 13.8644 17.4933 15.4287 16.212L20.8396 21.6229C20.9237 21.7075 21.0236 21.7746 21.1337 21.8204C21.2438 21.8662 21.3619 21.8897 21.4811 21.8897C21.6004 21.8897 21.7184 21.8662 21.8285 21.8204C21.9386 21.7746 22.0386 21.7075 22.1227 21.6229C22.207 21.5387 22.2739 21.4387 22.3196 21.3286C22.3652 21.2186 22.3887 21.1006 22.3887 20.9814C22.3887 20.8622 22.3652 20.7442 22.3196 20.6341C22.2739 20.524 22.207 20.424 22.1227 20.3398ZM2.43103 9.19053C2.43103 5.18796 5.68771 1.93127 9.69029 1.93127C13.6929 1.93127 16.9495 5.18796 16.9495 9.19053C16.9495 13.1931 13.6929 16.4498 9.69029 16.4498C5.68771 16.4498 2.43103 13.1931 2.43103 9.19053ZM14.2219 10.9999C14.2219 11.2406 14.1263 11.4714 13.9561 11.6415C13.7859 11.8117 13.5551 11.9073 13.3145 11.9073H6.05521C5.81455 11.9073 5.58375 11.8117 5.41358 11.6415C5.24341 11.4714 5.1478 11.2406 5.1478 10.9999C5.1478 10.7592 5.24341 10.5284 5.41358 10.3583C5.58375 10.1881 5.81455 10.0925 6.05521 10.0925V8.27768C6.05521 8.03702 6.15081 7.80622 6.32098 7.63604C6.49116 7.46587 6.72196 7.37027 6.96262 7.37027C7.20328 7.37027 7.43408 7.46587 7.60425 7.63604C7.77442 7.80622 7.87003 8.03702 7.87003 8.27768V10.0925H8.77743V5.55546C8.77743 5.3148 8.87304 5.08399 9.04321 4.91382C9.21338 4.74365 9.44418 4.64805 9.68484 4.64805C9.9255 4.64805 10.1563 4.74365 10.3265 4.91382C10.4966 5.08399 10.5922 5.3148 10.5922 5.55546V10.0925H11.4997V7.37027C11.4997 7.12961 11.5953 6.89881 11.7654 6.72864C11.9356 6.55846 12.1664 6.46286 12.4071 6.46286C12.6477 6.46286 12.8785 6.55846 13.0487 6.72864C13.2189 6.89881 13.3145 7.12961 13.3145 7.37027V10.0925C13.5551 10.0925 13.7859 10.1881 13.9561 10.3583C14.1263 10.5284 14.2219 10.7592 14.2219 10.9999Z" fill="#0C0A08"/>
</svg>
