<svg width="22" height="22" viewBox="0 0 22 22" fill="none" xmlns="http://www.w3.org/2000/svg">
<g clip-path="url(#clip0_456_232)">
<path d="M5.5 11C8.53325 11 11 8.53326 11 5.50001C11 2.46676 8.53325 9.99402e-06 5.5 9.99402e-06C2.46675 9.99402e-06 9.17935e-07 2.46676 9.17935e-07 5.50001C9.17935e-07 8.53326 2.46675 11 5.5 11ZM5.5 1.83334C7.52217 1.83334 9.16667 3.47784 9.16667 5.50001C9.16643 5.99157 9.06684 6.478 8.87387 6.9301C8.6809 7.38219 8.39854 7.79062 8.04375 8.13084C7.83899 7.62499 7.48802 7.19169 7.03571 6.88634C6.58341 6.58099 6.05031 6.41747 5.50458 6.41668H5.49542C4.94951 6.41715 4.41615 6.58042 3.96351 6.8856C3.51088 7.19079 3.15954 7.62402 2.95442 8.12993C2.60028 7.78949 2.31847 7.38111 2.12584 6.92923C1.93321 6.47734 1.83372 5.99124 1.83333 5.50001C1.83333 3.47784 3.47783 1.83334 5.5 1.83334ZM4.125 4.12501C4.12506 3.94438 4.1607 3.76554 4.22988 3.59868C4.29906 3.43182 4.40042 3.28023 4.52819 3.15255C4.65595 3.02487 4.80762 2.9236 4.97452 2.85454C5.14142 2.78547 5.32029 2.74995 5.50092 2.75001C5.68155 2.75007 5.86039 2.78571 6.02725 2.85489C6.1941 2.92406 6.3457 3.02543 6.47338 3.1532C6.60106 3.28096 6.70233 3.43263 6.77139 3.59953C6.84046 3.76643 6.87598 3.9453 6.87592 4.12593C6.8758 4.49072 6.73077 4.84053 6.47273 5.09839C6.2147 5.35625 5.8648 5.50105 5.5 5.50093C5.13521 5.5008 4.7854 5.35577 4.52754 5.09774C4.26968 4.83971 4.12488 4.4898 4.125 4.12501ZM21.4161 6.30576C21.3039 6.34948 21.1842 6.37067 21.0638 6.36812C20.9434 6.36557 20.8247 6.33933 20.7145 6.29089C20.6043 6.24245 20.5046 6.17277 20.4213 6.08583C20.338 5.99889 20.2727 5.89638 20.229 5.78418L19.2078 3.16709C15.8556 10.2731 9.79 15.0526 1.155 17.3855C1.03872 17.4169 0.917392 17.425 0.797958 17.4095C0.678524 17.394 0.563318 17.3551 0.458917 17.295C0.354517 17.235 0.262968 17.1549 0.189496 17.0595C0.116023 16.9641 0.0620678 16.8551 0.0307092 16.7388C-0.000649358 16.6225 -0.00879673 16.5012 0.00673227 16.3818C0.0222613 16.2623 0.0611625 16.1471 0.121215 16.0427C0.181267 15.9383 0.261295 15.8468 0.356728 15.7733C0.452162 15.6998 0.561132 15.6459 0.677418 15.6145C8.79817 13.4209 14.4797 8.94209 17.5899 2.29351L14.7739 3.39168C14.5475 3.48005 14.2952 3.47484 14.0725 3.3772C13.8499 3.27955 13.6752 3.09747 13.5868 2.87101C13.4985 2.64455 13.5037 2.39226 13.6013 2.16963C13.699 1.94701 13.881 1.7723 14.1075 1.68393L18.1418 0.11001C18.5656 -0.0543678 19.0373 -0.0442352 19.4537 0.138192C19.87 0.320619 20.1973 0.660498 20.3638 1.08351L21.9377 5.11776C22.026 5.34422 22.0208 5.59651 21.9232 5.81912C21.8255 6.04174 21.6435 6.21645 21.417 6.30484L21.4161 6.30576ZM21.0833 8.25001V21.0833C21.0833 21.3265 20.9868 21.5596 20.8149 21.7315C20.6429 21.9034 20.4098 22 20.1667 22C19.9236 22 19.6904 21.9034 19.5185 21.7315C19.3466 21.5596 19.25 21.3265 19.25 21.0833V8.25001C19.25 8.0069 19.3466 7.77374 19.5185 7.60183C19.6904 7.42992 19.9236 7.33334 20.1667 7.33334C20.4098 7.33334 20.6429 7.42992 20.8149 7.60183C20.9868 7.77374 21.0833 8.0069 21.0833 8.25001ZM16.5 12.8333V21.0833C16.5 21.3265 16.4034 21.5596 16.2315 21.7315C16.0596 21.9034 15.8265 22 15.5833 22C15.3402 22 15.1071 21.9034 14.9352 21.7315C14.7632 21.5596 14.6667 21.3265 14.6667 21.0833V12.8333C14.6667 12.5902 14.7632 12.3571 14.9352 12.1852C15.1071 12.0133 15.3402 11.9167 15.5833 11.9167C15.8265 11.9167 16.0596 12.0133 16.2315 12.1852C16.4034 12.3571 16.5 12.5902 16.5 12.8333ZM11.9167 16.5V21.0833C11.9167 21.3265 11.8201 21.5596 11.6482 21.7315C11.4763 21.9034 11.2431 22 11 22C10.7569 22 10.5237 21.9034 10.3518 21.7315C10.1799 21.5596 10.0833 21.3265 10.0833 21.0833V16.5C10.0833 16.2569 10.1799 16.0237 10.3518 15.8518C10.5237 15.6799 10.7569 15.5833 11 15.5833C11.2431 15.5833 11.4763 15.6799 11.6482 15.8518C11.8201 16.0237 11.9167 16.2569 11.9167 16.5ZM7.33333 18.3333V21.0833C7.33333 21.3265 7.23676 21.5596 7.06485 21.7315C6.89294 21.9034 6.65978 22 6.41667 22C6.17355 22 5.9404 21.9034 5.76849 21.7315C5.59658 21.5596 5.5 21.3265 5.5 21.0833V18.3333C5.5 18.0902 5.59658 17.8571 5.76849 17.6852C5.9404 17.5133 6.17355 17.4167 6.41667 17.4167C6.65978 17.4167 6.89294 17.5133 7.06485 17.6852C7.23676 17.8571 7.33333 18.0902 7.33333 18.3333ZM2.75 20.1667V21.0833C2.75 21.3265 2.65342 21.5596 2.48152 21.7315C2.30961 21.9034 2.07645 22 1.83333 22C1.59022 22 1.35706 21.9034 1.18515 21.7315C1.01324 21.5596 0.916668 21.3265 0.916668 21.0833V20.1667C0.916668 19.9236 1.01324 19.6904 1.18515 19.5185C1.35706 19.3466 1.59022 19.25 1.83333 19.25C2.07645 19.25 2.30961 19.3466 2.48152 19.5185C2.65342 19.6904 2.75 19.9236 2.75 20.1667Z" fill="#0C0A08"/>
</g>
<defs>
<clipPath id="clip0_456_232">
<rect width="22" height="22" fill="white"/>
</clipPath>
</defs>
</svg>
