<svg width="24" height="24" viewBox="0 0 24 24" fill="none" xmlns="http://www.w3.org/2000/svg">
<path d="M3.98713 3.066C3.92023 2.953 3.87623 2.82792 3.85766 2.69792C3.83909 2.56791 3.84631 2.43552 3.8789 2.30831C3.91149 2.18109 3.96882 2.06154 4.04762 1.95648C4.12642 1.85142 4.22513 1.76291 4.33813 1.696C4.45114 1.62909 4.57621 1.5851 4.70622 1.56652C4.83622 1.54795 4.96861 1.55517 5.09583 1.58776C5.22305 1.62036 5.3426 1.67769 5.44766 1.75648C5.55272 1.83528 5.64123 1.934 5.70814 2.047L6.30114 3.047C6.43626 3.27522 6.4752 3.54777 6.40937 3.80469C6.34355 4.06162 6.17835 4.28187 5.95013 4.417C5.72192 4.55213 5.44937 4.59106 5.19244 4.52524C4.93552 4.45941 4.71526 4.29422 4.58013 4.066L3.98713 3.066ZM21.1901 14.274C19.7001 16.226 16.5251 19.5 12.0001 19.5C7.35513 19.5 4.23914 16.267 2.79513 14.339C1.77313 12.975 1.77513 11.083 2.80013 9.738C4.29113 7.782 7.46913 4.5 12.0001 4.5C16.6041 4.5 19.7361 7.739 21.1941 9.67C21.6942 10.3335 21.9644 11.1419 21.9637 11.9727C21.9629 12.8035 21.6914 13.6114 21.1901 14.274ZM19.5981 10.875C18.3651 9.241 15.7381 6.5 12.0001 6.5C8.33114 6.5 5.65813 9.289 4.39113 10.951C4.15125 11.2657 4.02174 11.6507 4.02264 12.0463C4.02355 12.442 4.15481 12.8264 4.39613 13.14C5.61613 14.768 8.22614 17.5 12.0001 17.5C15.6641 17.5 18.3341 14.719 19.6001 13.061C19.8413 12.7476 19.9719 12.3631 19.9716 11.9677C19.9712 11.5722 19.8399 11.188 19.5981 10.875ZM16.0001 12C16.0001 14.206 14.2061 16 12.0001 16C9.79414 16 8.00013 14.206 8.00013 12C8.00013 9.794 9.79414 8 12.0001 8C14.2061 8 16.0001 9.794 16.0001 12ZM14.0001 12C14.0001 10.897 13.1031 10 12.0001 10C10.8971 10 10.0001 10.897 10.0001 12C10.0001 13.103 10.8971 14 12.0001 14C13.1031 14 14.0001 13.103 14.0001 12ZM12.0001 3C12.2654 3 12.5197 2.89464 12.7072 2.70711C12.8948 2.51957 13.0001 2.26522 13.0001 2V1C13.0001 0.734784 12.8948 0.48043 12.7072 0.292893C12.5197 0.105357 12.2654 0 12.0001 0C11.7349 0 11.4806 0.105357 11.293 0.292893C11.1055 0.48043 11.0001 0.734784 11.0001 1V2C11.0001 2.26522 11.1055 2.51957 11.293 2.70711C11.4806 2.89464 11.7349 3 12.0001 3ZM18.0501 4.417C18.1631 4.48391 18.2882 4.52791 18.4182 4.54648C18.5482 4.56506 18.6806 4.55784 18.8078 4.52525C18.9351 4.49265 19.0546 4.43532 19.1597 4.35652C19.2647 4.27772 19.3532 4.17901 19.4201 4.066L20.0131 3.066C20.08 2.953 20.124 2.82792 20.1426 2.69792C20.1612 2.56791 20.154 2.43552 20.1214 2.30831C20.0888 2.18109 20.0314 2.06154 19.9527 1.95648C19.8739 1.85142 19.7751 1.76291 19.6621 1.696C19.5491 1.62909 19.4241 1.5851 19.2941 1.56652C19.164 1.54795 19.0317 1.55517 18.9044 1.58776C18.7772 1.62036 18.6577 1.67769 18.5526 1.75648C18.4476 1.83528 18.359 1.934 18.2921 2.047L17.6991 3.047C17.6322 3.16 17.5882 3.28508 17.5697 3.41508C17.5511 3.54509 17.5583 3.67748 17.5909 3.8047C17.6235 3.93191 17.6808 4.05147 17.7596 4.15653C17.8384 4.26158 17.9371 4.35009 18.0501 4.417ZM19.4201 19.934C19.285 19.7058 19.0648 19.5406 18.8078 19.4748C18.5509 19.4089 18.2784 19.4479 18.0501 19.583C17.8219 19.7181 17.6567 19.9384 17.5909 20.1953C17.5251 20.4522 17.564 20.7248 17.6991 20.953L18.2921 21.953C18.4273 22.1812 18.6475 22.3464 18.9044 22.4122C19.1614 22.4781 19.4339 22.4391 19.6621 22.304C19.8904 22.1689 20.0555 21.9486 20.1214 21.6917C20.1872 21.4348 20.1483 21.1622 20.0131 20.934L19.4201 19.934ZM12.0001 21C11.7349 21 11.4806 21.1054 11.293 21.2929C11.1055 21.4804 11.0001 21.7348 11.0001 22V23C11.0001 23.2652 11.1055 23.5196 11.293 23.7071C11.4806 23.8946 11.7349 24 12.0001 24C12.2654 24 12.5197 23.8946 12.7072 23.7071C12.8948 23.5196 13.0001 23.2652 13.0001 23V22C13.0001 21.7348 12.8948 21.4804 12.7072 21.2929C12.5197 21.1054 12.2654 21 12.0001 21ZM5.95013 19.583C5.83717 19.516 5.71209 19.4718 5.58206 19.4532C5.45202 19.4346 5.31959 19.4417 5.19233 19.4744C5.06508 19.507 4.94551 19.5643 4.84046 19.6432C4.73541 19.7221 4.64695 19.8209 4.58013 19.934L3.98713 20.934C3.92023 21.047 3.87623 21.1721 3.85766 21.3021C3.83909 21.4321 3.84631 21.5645 3.8789 21.6917C3.91149 21.8189 3.96882 21.9385 4.04762 22.0435C4.12642 22.1486 4.22513 22.2371 4.33813 22.304C4.45114 22.3709 4.57621 22.4149 4.70622 22.4335C4.83622 22.452 4.96861 22.4448 5.09583 22.4122C5.22305 22.3796 5.3426 22.3223 5.44766 22.2435C5.55272 22.1647 5.64123 22.066 5.70814 21.953L6.30114 20.953C6.36805 20.84 6.41205 20.7149 6.43062 20.5849C6.44919 20.4549 6.44198 20.3225 6.40938 20.1953C6.37679 20.0681 6.31946 19.9485 6.24066 19.8435C6.16186 19.7384 6.06314 19.6499 5.95013 19.583Z" fill="#0C0A08"/>
</svg>
