<svg width="24" height="24" viewBox="0 0 24 24" fill="none" xmlns="http://www.w3.org/2000/svg">
<path fill-rule="evenodd" clip-rule="evenodd" d="M11 2C12.933 2 14.5 3.56698 14.5 5.49997C14.5 7.36855 13.0358 8.89513 11.1921 8.99478L11 8.99998C9.06703 8.99998 7.5 7.433 7.5 5.49997C7.5 3.63144 8.96428 2.10481 10.808 2.00516L11 2ZM3.99998 20H12.8027C12.4449 19.3818 12.2011 18.7044 12.083 18H6V16.4L6.0052 16.2058C6.10162 14.4075 7.52934 13 9.24998 13H12.75L12.9332 13.0053C13.1117 13.0158 13.2866 13.0414 13.4567 13.0809C13.9623 12.495 14.5761 12.0121 15.2645 11.6585C14.5177 11.2386 13.661 11 12.75 11H9.24998L9.03361 11.0045C6.23447 11.1212 3.99998 13.4922 3.99998 16.4V20ZM9.50002 5.49997C9.50002 4.67155 10.1716 3.99997 11 3.99997C11.8284 3.99997 12.5 4.67155 12.5 5.49997C12.5 6.32839 11.8284 6.99997 11 6.99997C10.1716 6.99997 9.50002 6.32839 9.50002 5.49997ZM15.0611 21.0451L18 19.25L20.9389 21.0451L20.1399 17.6952L22.7553 15.4549L19.3225 15.1797L18 12L16.6775 15.1797L13.2447 15.4549L15.8601 17.6952L15.0611 21.0451Z" fill="#0C0A08"/>
</svg>
