<svg width="22" height="22" viewBox="0 0 22 22" fill="none" xmlns="http://www.w3.org/2000/svg">
<g clip-path="url(#clip0_456_114)">
<path d="M14.6667 17.4169C14.6667 18.933 13.4328 20.1669 11.9167 20.1669V21.0835C11.9167 21.3267 11.8201 21.5598 11.6482 21.7317C11.4763 21.9036 11.2431 22.0002 11 22.0002C10.7569 22.0002 10.5237 21.9036 10.3518 21.7317C10.1799 21.5598 10.0833 21.3267 10.0833 21.0835V20.1669H9.83768C9.35524 20.166 8.88145 20.0387 8.46358 19.7976C8.04571 19.5565 7.69836 19.21 7.45618 18.7928C7.39074 18.6885 7.34699 18.5721 7.32754 18.4505C7.30809 18.3289 7.31334 18.2046 7.34297 18.0851C7.37259 17.9656 7.426 17.8533 7.49999 17.7548C7.57398 17.6564 7.66704 17.5739 7.77362 17.5122C7.8802 17.4506 7.99811 17.411 8.12031 17.3959C8.24251 17.3808 8.36651 17.3905 8.48489 17.4244C8.60327 17.4583 8.71362 17.5156 8.80933 17.5931C8.90505 17.6705 8.98419 17.7665 9.04201 17.8752C9.20609 18.1575 9.51043 18.3335 9.83676 18.3335H11.9158C12.1589 18.3335 12.392 18.237 12.5639 18.0651C12.7358 17.8931 12.8324 17.66 12.8324 17.4169C12.8329 17.2495 12.7737 17.0875 12.6655 16.9598C12.5574 16.8322 12.4072 16.7472 12.2421 16.7202L9.45451 16.2555C8.86074 16.1583 8.32101 15.8527 7.93212 15.3936C7.54323 14.9345 7.33063 14.3519 7.33243 13.7502C7.33243 12.234 8.56626 11.0002 10.0824 11.0002V10.0835C10.0824 9.84042 10.179 9.60727 10.3509 9.43536C10.5228 9.26345 10.756 9.16687 10.9991 9.16687C11.2422 9.16687 11.4754 9.26345 11.6473 9.43536C11.8192 9.60727 11.9158 9.84042 11.9158 10.0835V11.0002H12.1614C12.6439 11.001 13.1177 11.1284 13.5355 11.3695C13.9534 11.6106 14.3007 11.957 14.5429 12.3743C14.6084 12.4786 14.6521 12.595 14.6716 12.7166C14.691 12.8382 14.6858 12.9625 14.6561 13.082C14.6265 13.2015 14.5731 13.3138 14.4991 13.4122C14.4251 13.5107 14.3321 13.5932 14.2255 13.6548C14.1189 13.7165 14.001 13.7561 13.8788 13.7712C13.7566 13.7863 13.6326 13.7766 13.5142 13.7427C13.3958 13.7088 13.2855 13.6514 13.1898 13.574C13.094 13.4965 13.0149 13.4006 12.9571 13.2919C12.8761 13.1528 12.7601 13.0374 12.6207 12.957C12.4813 12.8766 12.3233 12.834 12.1623 12.8335H10.0833C9.84023 12.8335 9.60707 12.9301 9.43516 13.102C9.26325 13.2739 9.16668 13.5071 9.16668 13.7502C9.16668 14.0967 9.41509 14.39 9.75701 14.4469L12.5446 14.9116C13.1384 15.0088 13.6781 15.3144 14.067 15.7735C14.4559 16.2326 14.6685 16.8152 14.6667 17.4169ZM21.7314 9.97262L19.6295 7.87071C19.2856 7.52723 18.8194 7.33431 18.3333 7.33431C17.8473 7.33431 17.3811 7.52723 17.0372 7.87071L14.9353 9.97262C14.8502 10.0577 14.7826 10.1588 14.7366 10.27C14.6905 10.3812 14.6668 10.5003 14.6668 10.6207C14.6668 10.8638 14.7634 11.0969 14.9353 11.2688C15.1071 11.4407 15.3403 11.5372 15.5833 11.5372C15.7037 11.5372 15.8229 11.5135 15.9341 11.4675C16.0453 11.4214 16.1463 11.3539 16.2314 11.2688L17.4167 10.0835V21.0835C17.4167 21.3267 17.5133 21.5598 17.6852 21.7317C17.8571 21.9036 18.0902 22.0002 18.3333 22.0002C18.5765 22.0002 18.8096 21.9036 18.9815 21.7317C19.1534 21.5598 19.25 21.3267 19.25 21.0835V10.0835L20.4353 11.2688C20.5202 11.3542 20.6212 11.422 20.7324 11.4683C20.8436 11.5145 20.9629 11.5383 21.0833 11.5383C21.2038 11.5383 21.3231 11.5145 21.4343 11.4683C21.5455 11.422 21.6465 11.3542 21.7314 11.2688C21.8166 11.1837 21.8842 11.0827 21.9303 10.9715C21.9765 10.8603 22.0002 10.7411 22.0002 10.6207C22.0002 10.5003 21.9765 10.3811 21.9303 10.2699C21.8842 10.1587 21.8166 10.0577 21.7314 9.97262ZM8.89809 3.93546L10.0833 2.75021V6.41687C10.0833 6.65999 10.1799 6.89315 10.3518 7.06505C10.5237 7.23696 10.7569 7.33354 11 7.33354C11.2431 7.33354 11.4763 7.23696 11.6482 7.06505C11.8201 6.89315 11.9167 6.65999 11.9167 6.41687V2.75021L13.1019 3.93546C13.1869 4.02088 13.2878 4.08866 13.3991 4.13492C13.5103 4.18118 13.6296 4.20499 13.75 4.20499C13.8705 4.20499 13.9897 4.18118 14.101 4.13492C14.2122 4.08866 14.3132 4.02088 14.3981 3.93546C14.4833 3.8504 14.5509 3.74938 14.597 3.63817C14.6431 3.52697 14.6669 3.40776 14.6669 3.28737C14.6669 3.16698 14.6431 3.04778 14.597 2.93657C14.5509 2.82537 14.4833 2.72434 14.3981 2.63929L12.2962 0.537373C11.9523 0.1939 11.4861 0.000976563 11 0.000976562C10.5139 0.000976562 10.0478 0.1939 9.70384 0.537373L7.60193 2.63929C7.51682 2.7244 7.44931 2.82543 7.40325 2.93663C7.35719 3.04783 7.33348 3.16701 7.33348 3.28737C7.33348 3.40773 7.35719 3.52691 7.40325 3.63811C7.44931 3.74931 7.51682 3.85035 7.60193 3.93546C7.68703 4.02056 7.78807 4.08807 7.89927 4.13413C8.01047 4.18019 8.12965 4.2039 8.25001 4.2039C8.37037 4.2039 8.48955 4.18019 8.60075 4.13413C8.71195 4.08807 8.81299 4.02056 8.89809 3.93546ZM7.06476 7.22262L4.96284 5.12071C4.61892 4.77723 4.15274 4.58431 3.66668 4.58431C3.18062 4.58431 2.71443 4.77723 2.37051 5.12071L0.268592 7.22262C0.183484 7.30773 0.115973 7.40877 0.0699134 7.51997C0.0238536 7.63116 0.000146868 7.75035 0.000146866 7.87071C0.000146864 7.99107 0.0238536 8.11025 0.0699134 8.22145C0.115973 8.33264 0.183484 8.43368 0.268592 8.51879C0.353699 8.6039 0.454737 8.67141 0.565935 8.71747C0.677133 8.76353 0.796315 8.78723 0.916675 8.78723C1.03704 8.78723 1.15622 8.76353 1.26742 8.71747C1.37861 8.67141 1.47965 8.6039 1.56476 8.51879L2.75001 7.33354V21.0835C2.75001 21.3267 2.84659 21.5598 3.01849 21.7317C3.1904 21.9036 3.42356 22.0002 3.66668 22.0002C3.90979 22.0002 4.14295 21.9036 4.31486 21.7317C4.48676 21.5598 4.58334 21.3267 4.58334 21.0835V7.33354L5.76859 8.51879C5.85352 8.60421 5.9545 8.672 6.06573 8.71825C6.17695 8.76451 6.29622 8.78832 6.41668 8.78832C6.53713 8.78832 6.6564 8.76451 6.76762 8.71825C6.87885 8.672 6.97983 8.60421 7.06476 8.51879C7.14996 8.43373 7.21755 8.33271 7.26367 8.22151C7.30979 8.1103 7.33353 7.9911 7.33353 7.87071C7.33353 7.75032 7.30979 7.63111 7.26367 7.5199C7.21755 7.4087 7.14996 7.30768 7.06476 7.22262Z" fill="#0C0A08"/>
</g>
<defs>
<clipPath id="clip0_456_114">
<rect width="22" height="22" fill="white"/>
</clipPath>
</defs>
</svg>
