<svg width="153" height="60" viewBox="0 0 153 60" fill="none" xmlns="http://www.w3.org/2000/svg">
<g clip-path="url(#clip0_331_1731)">
<path d="M48.4417 40.5328L50.2859 36.2435C52.3052 37.7315 54.9391 38.5191 57.5735 38.5191C59.5053 38.5191 60.7344 37.7754 60.7344 36.6376C60.6903 33.4861 49.1003 35.9371 49.0122 28.0138C48.9681 23.9871 52.5684 20.8794 57.6617 20.8794C60.6903 20.8794 63.7202 21.6237 65.8711 23.3311L64.1477 27.7119C62.1687 26.4456 59.7244 25.5628 57.3978 25.5628C55.8174 25.5628 54.7634 26.3065 54.7634 27.2701C54.8075 30.3778 66.4862 28.6705 66.6178 36.2435C66.6178 40.358 63.105 43.247 58.0999 43.247C54.4127 43.247 51.0321 42.3717 48.4411 40.5328H48.4417ZM121.877 34.6903C121.411 35.5134 120.734 36.1984 119.915 36.6751C119.095 37.1519 118.163 37.4032 117.214 37.4032C114.256 37.4032 111.858 35.0123 111.858 32.0632C111.858 29.1141 114.256 26.7232 117.214 26.7232C118.163 26.7232 119.095 26.9745 119.915 27.4513C120.734 27.928 121.411 28.613 121.877 29.4361L127.004 26.6041C125.083 23.1888 121.42 20.8794 117.214 20.8794C111.019 20.8794 105.997 25.8861 105.997 32.0632C105.997 38.2397 111.019 43.247 117.214 43.247C121.42 43.247 125.083 40.9376 127.004 37.5223L121.877 34.6903ZM69.9449 42.8091H76.3547V11.5696H69.9455L69.9449 42.8091ZM130.241 11.5696V42.8091H136.651V33.4497L144.246 42.8091H152.439L142.78 31.6904L151.737 21.3155H143.895L136.651 29.9411V11.5696H130.241ZM96.1025 21.3167V23.8561C95.0491 22.1049 92.4587 20.8794 89.7367 20.8794C84.1171 20.8794 79.6831 25.826 79.6831 32.0413C79.6831 38.2566 84.1171 43.247 89.7367 43.247C92.4587 43.247 95.0491 42.0215 96.1025 40.2703V42.8091H102.512V21.3167H96.1025ZM96.1025 34.7335C95.1807 36.2654 93.2489 37.4026 91.098 37.4026C88.1393 37.4026 85.7416 35.0123 85.7416 32.0632C85.7416 29.1141 88.1393 26.7232 91.098 26.7232C93.2489 26.7232 95.1807 27.9048 96.1025 29.48V34.7335Z" fill="#19323C"/>
<path d="M14.5906 10.8794C12.5134 10.8794 10.8297 12.5585 10.8297 14.6293C10.8292 15.1212 10.9261 15.6084 11.1148 16.0631C11.3035 16.5178 11.5804 16.931 11.9297 17.2793C12.2789 17.6275 12.6936 17.9038 13.1502 18.0925C13.6068 18.2812 14.0962 18.3786 14.5906 18.3791H18.3521V14.6293C18.353 13.6357 17.9571 12.6824 17.2517 11.9792C16.5463 11.276 15.5891 10.8804 14.5906 10.8794ZM14.5906 20.879H4.56089C2.48367 20.879 0.799988 22.5582 0.799988 24.6295C0.799988 26.7003 2.48367 28.3794 4.56089 28.3794H14.5912C16.6678 28.3794 18.3521 26.7003 18.3521 24.6295C18.3521 22.5582 16.6678 20.879 14.5906 20.879Z" fill="#36C5F0"/>
<path d="M38.412 24.6295C38.412 22.5582 36.7277 20.879 34.6504 20.879C32.5732 20.879 30.8895 22.5582 30.8895 24.6295V28.3794H34.6504C35.649 28.3784 36.6062 27.9828 37.3116 27.2796C38.017 26.5763 38.4128 25.6231 38.412 24.6295ZM28.3823 24.6295V14.6293C28.3831 13.6357 27.9873 12.6824 27.2819 11.9792C26.5765 11.276 25.6193 10.8804 24.6207 10.8794C22.5435 10.8794 20.8598 12.5585 20.8598 14.6293V24.6289C20.8598 26.7009 22.5435 28.38 24.6207 28.38C25.6193 28.379 26.5765 27.9834 27.2819 27.2802C27.9873 26.577 28.3831 25.6237 28.3823 24.6301" fill="#2EB67D"/>
<path d="M24.6207 48.3794C25.6193 48.3784 26.5765 47.9828 27.2819 47.2796C27.9873 46.5763 28.3831 45.6231 28.3823 44.6295C28.3831 43.6359 27.9873 42.6827 27.2819 41.9795C26.5765 41.2763 25.6193 40.8807 24.6207 40.8797H20.8598V44.6295C20.8598 46.7003 22.5435 48.3794 24.6207 48.3794ZM24.6207 38.3798H34.6511C36.7277 38.3798 38.412 36.7006 38.412 34.6293C38.4128 33.6357 38.017 32.6824 37.3116 31.9792C36.6062 31.276 35.649 30.8804 34.6504 30.8794H24.6207C22.5435 30.8794 20.8598 32.5585 20.8598 34.6293C20.8593 35.1212 20.9562 35.6084 21.145 36.0631C21.3337 36.5178 21.6106 36.931 21.9598 37.2793C22.309 37.6275 22.7238 37.9038 23.1803 38.0925C23.6369 38.2812 24.1264 38.3786 24.6207 38.3791" fill="#ECB22E"/>
<path d="M0.79999 34.6293C0.799493 35.1212 0.896378 35.6084 1.08511 36.0631C1.27385 36.5178 1.55074 36.931 1.89997 37.2793C2.2492 37.6275 2.66394 37.9038 3.1205 38.0925C3.57706 38.2812 4.06651 38.3786 4.56089 38.3791C5.55941 38.3781 6.51663 37.9825 7.22204 37.2793C7.92745 36.5761 8.32326 35.6228 8.32242 34.6293V30.8794H4.56089C2.48368 30.8794 0.79999 32.5585 0.79999 34.6293ZM10.8297 34.6293V44.6289C10.8297 46.7003 12.5134 48.3794 14.5906 48.3794C15.5891 48.3784 16.5463 47.9828 17.2517 47.2796C17.9572 46.5763 18.353 45.6231 18.3521 44.6295V34.6293C18.3526 34.1373 18.2557 33.65 18.0669 33.1953C17.8782 32.7405 17.6012 32.3273 17.2519 31.979C16.9026 31.6308 16.4878 31.3545 16.0312 31.1658C15.5745 30.9771 15.085 30.8798 14.5906 30.8794C12.5134 30.8794 10.8297 32.5585 10.8297 34.6293Z" fill="#E01E5A"/>
</g>
<defs>
<clipPath id="clip0_331_1731">
<rect width="152" height="60" fill="white" transform="translate(0.799988)"/>
</clipPath>
</defs>
</svg>
