<svg width="176" height="54" viewBox="0 0 176 54" fill="none" xmlns="http://www.w3.org/2000/svg">
<path d="M26.7408 0.848877C12.2434 0.848877 0.490326 12.6016 0.490326 27.099C0.490326 41.5971 12.2434 53.3489 26.7408 53.3489C41.2398 53.3489 52.9916 41.5971 52.9916 27.099C52.9916 12.6025 41.2398 0.850131 26.7405 0.850131L26.7408 0.848877ZM38.7791 38.7091C38.3089 39.4803 37.2996 39.7248 36.5284 39.2514C30.3651 35.4867 22.6062 34.6341 13.4687 36.7218C12.5882 36.9224 11.7105 36.3707 11.5099 35.4899C11.3083 34.609 11.8578 33.7313 12.7405 33.5307C22.7401 31.2462 31.3174 32.2298 38.2368 36.4585C39.0079 36.9318 39.2524 37.938 38.7791 38.7091ZM41.9921 31.5615C41.3997 32.5245 40.1395 32.8285 39.1772 32.2361C32.1211 27.899 21.3652 26.6429 13.0192 29.1764C11.9368 29.5033 10.7936 28.8933 10.4651 27.8128C10.1391 26.7304 10.7494 25.5894 11.8299 25.2603C21.3633 22.3676 33.2151 23.7688 41.3182 28.7482C42.2805 29.3406 42.5846 30.6007 41.9921 31.5618V31.5615ZM42.268 24.1186C33.8076 19.0935 19.849 18.6314 11.7713 21.083C10.4742 21.4764 9.10246 20.7442 8.70937 19.447C8.31629 18.1493 9.04791 16.7785 10.346 16.3842C19.6186 13.5693 35.0332 14.1131 44.7738 19.8956C45.943 20.5881 46.3255 22.0949 45.6327 23.26C44.9431 24.4267 43.4322 24.8114 42.2692 24.1186H42.268ZM71.9092 25.0816C67.3765 24.0007 66.5709 23.2422 66.5709 21.6482C66.5709 20.1423 67.9878 19.1289 70.0974 19.1289C72.1412 19.1289 74.1662 19.8984 76.2914 21.4827C76.3541 21.5306 76.4356 21.5498 76.514 21.5372C76.5955 21.5253 76.6645 21.4817 76.7115 21.4162L78.9245 18.2966C79.0154 18.1681 78.9904 17.991 78.8681 17.8929C76.3385 15.8638 73.4922 14.8774 70.1632 14.8774C65.27 14.8774 61.8501 17.8142 61.8501 22.0162C61.8501 26.5223 64.7998 28.1178 69.8968 29.3494C74.232 30.3484 74.9655 31.1854 74.9655 32.6812C74.9655 34.3394 73.4859 35.3707 71.1036 35.3707C68.458 35.3707 66.2982 34.4774 63.8845 32.3897C63.8249 32.3364 63.7434 32.3145 63.6682 32.3176C63.5867 32.3239 63.5146 32.3615 63.4645 32.421L60.9818 35.3739C60.8784 35.4993 60.8909 35.6811 61.01 35.7876C63.8187 38.2954 67.2731 39.6182 71.0033 39.6182C76.2758 39.6182 79.6831 36.7374 79.6831 32.2768C79.6925 28.5131 77.4387 26.4285 71.9186 25.0856L71.9092 25.0816ZM91.6136 20.6116C89.3284 20.6116 87.4539 21.5118 85.9054 23.3566V21.2802C85.9054 21.1162 85.7738 20.9827 85.6107 20.9827H81.5514C81.3884 20.9827 81.2567 21.1162 81.2567 21.2802V44.3515C81.2567 44.5145 81.3884 44.6493 81.5514 44.6493H85.6107C85.7738 44.6493 85.9054 44.5145 85.9054 44.3515V37.0697C87.4539 38.8032 89.3284 39.6527 91.6136 39.6527C95.8611 39.6527 100.162 36.3832 100.162 30.1331C100.168 23.8816 95.8673 20.6113 91.6167 20.6113L91.6136 20.6116ZM95.441 30.1331C95.441 33.3144 93.4819 35.5369 90.6732 35.5369C87.899 35.5369 85.8051 33.2141 85.8051 30.1331C85.8051 27.0517 87.899 24.7296 90.6732 24.7296C93.4348 24.7292 95.441 27.0012 95.441 30.1327V30.1331ZM111.18 20.6116C105.71 20.6116 101.425 24.8233 101.425 30.2011C101.425 35.5212 105.682 39.6871 111.114 39.6871C116.603 39.6871 120.901 35.4899 120.901 30.1331C120.901 24.7944 116.631 20.6122 111.18 20.6122V20.6116ZM111.18 35.5682C108.271 35.5682 106.077 33.2298 106.077 30.1315C106.077 27.0191 108.196 24.7606 111.114 24.7606C114.042 24.7606 116.249 27.0981 116.249 30.1995C116.249 33.3113 114.117 35.5682 111.18 35.5682ZM132.58 20.9827H128.113V16.4168C128.113 16.2532 127.982 16.1196 127.819 16.1196H123.759C123.596 16.1196 123.462 16.2532 123.462 16.4168V20.9827H121.512C121.349 20.9827 121.217 21.1162 121.217 21.2802V24.7681C121.217 24.9317 121.349 25.0656 121.512 25.0656H123.462V34.0918C123.462 37.7374 125.277 39.5868 128.859 39.5868C130.314 39.5868 131.521 39.2859 132.659 38.6402C132.753 38.59 132.809 38.4897 132.809 38.3831V35.0604C132.809 34.9601 132.756 34.8629 132.668 34.8096C132.58 34.7532 132.471 34.7501 132.38 34.7971C131.599 35.1889 130.844 35.3707 129.997 35.3707C128.696 35.3707 128.113 34.7783 128.113 33.4555V25.0672H132.58C132.743 25.0672 132.875 24.9336 132.875 24.7697V21.2821C132.881 21.1181 132.75 20.9846 132.583 20.9846L132.58 20.9827ZM148.141 21.0006V20.4398C148.141 18.79 148.774 18.0543 150.191 18.0543C151.037 18.0543 151.717 18.2223 152.479 18.4762C152.573 18.5057 152.67 18.491 152.746 18.4349C152.824 18.3788 152.868 18.2888 152.868 18.1935V14.7736C152.868 14.6429 152.786 14.5272 152.658 14.4887C151.855 14.2495 150.827 14.004 149.285 14.004C145.539 14.004 143.555 16.1149 143.555 20.1063V20.9652H141.605C141.442 20.9652 141.307 21.0987 141.307 21.2623V24.7681C141.307 24.9317 141.442 25.0656 141.605 25.0656H143.555V38.985C143.555 39.1511 143.69 39.2828 143.853 39.2828H147.909C148.075 39.2828 148.207 39.1511 148.207 38.985V25.0665H151.996L157.802 38.985C157.143 40.4457 156.495 40.7373 155.611 40.7373C154.896 40.7373 154.14 40.5241 153.372 40.1009C153.3 40.0633 153.213 40.057 153.137 40.079C153.059 40.1072 152.993 40.1636 152.962 40.2388L151.586 43.2575C151.52 43.4017 151.576 43.5678 151.714 43.6431C153.15 44.4205 154.444 44.7527 156.046 44.7527C159.043 44.7527 160.701 43.3547 162.159 39.5994L169.199 21.4068C169.237 21.3153 169.224 21.2119 169.168 21.1307C169.115 21.0501 169.024 21.0015 168.927 21.0015H164.701C164.573 21.0015 164.46 21.0821 164.419 21.2009L160.09 33.562L155.35 21.1927C155.307 21.0777 155.197 21.0015 155.075 21.0015H148.141V21.0006ZM139.119 20.9827H135.06C134.897 20.9827 134.762 21.1162 134.762 21.2802V38.985C134.762 39.1511 134.897 39.2828 135.06 39.2828H139.119C139.282 39.2828 139.417 39.1511 139.417 38.985V21.2814C139.417 21.1175 139.285 20.984 139.119 20.984V20.9827ZM137.113 12.9207C135.505 12.9207 134.201 14.2222 134.201 15.83C134.201 17.4387 135.505 18.7418 137.113 18.7418C138.721 18.7418 140.022 17.4387 140.022 15.83C140.022 14.2225 138.718 12.9207 137.113 12.9207ZM172.666 26.6755C171.061 26.6755 169.811 25.3856 169.811 23.8193C169.811 22.2529 171.077 20.9482 172.682 20.9482C174.287 20.9482 175.538 22.2378 175.538 23.803C175.538 25.3693 174.271 26.6755 172.666 26.6755ZM172.682 21.2322C171.218 21.2322 170.111 22.3952 170.111 23.8193C170.111 25.2427 171.212 26.39 172.666 26.39C174.13 26.39 175.237 25.228 175.237 23.803C175.237 22.3795 174.136 21.2322 172.682 21.2322ZM173.315 24.0967L174.124 25.2276H173.44L172.713 24.1901H172.089V25.2276H171.519V22.2297H172.854C173.553 22.2297 174.011 22.5861 174.011 23.1861C174.014 23.6776 173.729 23.9779 173.318 24.0967H173.315ZM172.832 22.7441H172.089V23.6923H172.832C173.202 23.6923 173.425 23.5108 173.425 23.2177C173.425 22.9093 173.202 22.7441 172.832 22.7441Z" fill="#1ED760"/>
</svg>
