<svg width="151" height="60" viewBox="0 0 151 60" fill="none" xmlns="http://www.w3.org/2000/svg">
<g clip-path="url(#clip0_331_1740)">
<path d="M48.7635 27.2512C48.7635 24.5853 46.0976 21.7417 41.6545 21.7417C36.6782 21.7417 30.991 25.4739 30.1023 32.9384C29.2137 40.4028 33.8346 43.7796 38.6331 43.7796C43.4317 43.7796 45.7422 42.0024 48.2303 39.5142C46.0976 36.8483 43.254 38.0924 42.7208 38.2701C42.1877 38.6256 41.299 38.981 39.8772 38.981C38.1 38.981 36.145 38.0924 36.145 34.7156C47.8749 33.4716 48.7635 29.9171 48.7635 27.2512ZM43.0763 27.6066C43.0763 28.4953 42.7208 29.9171 36.8559 30.628C38.1 26.1848 40.4104 25.8294 41.4767 25.8294C42.5431 26.0071 43.0763 26.718 43.0763 27.6066ZM23.3488 28.3175C23.3488 28.3175 20.8606 36.1374 20.6829 36.8483C20.6829 36.1374 18.7279 22.0972 18.7279 22.0972C14.4625 22.0972 12.1521 25.1185 11.0858 28.3175C11.0858 28.3175 8.06443 36.1374 7.8867 36.8483C7.70898 36.3152 7.35353 28.4953 7.35353 28.4953C6.99808 24.5853 3.44358 22.0972 0.599976 22.0972L4.15448 43.4242C8.59761 43.4242 11.0858 40.4028 12.3298 37.2038C12.3298 37.2038 14.9957 30.2725 15.1734 29.9171C15.1734 30.2725 17.1284 43.4242 17.1284 43.4242C21.5715 43.4242 24.0597 40.5806 25.3038 37.5592L31.5241 22.0972C26.9033 22.0972 24.5929 25.1185 23.3488 28.3175ZM65.2919 21.564C62.626 21.564 60.4933 22.9858 58.7161 25.2962L60.1379 12.5C56.4057 12.5 53.5621 15.6991 52.8512 20.3199L50.0076 43.2464C52.1403 43.2464 54.273 42.7133 55.517 41.1137C56.5834 42.5355 58.1829 43.6019 60.4933 43.6019C66.7137 43.6019 70.9791 36.4929 70.9791 29.7393C71.1568 23.519 68.1355 21.564 65.2919 21.564ZM64.581 32.5829C63.8701 36.3152 61.9151 38.8033 59.7824 38.8033C57.8275 38.8033 56.9388 37.9147 56.9388 37.9147C57.2943 34.7156 57.6497 32.5829 58.3606 30.8057C59.0715 29.0284 60.8488 26.3626 62.626 26.3626C64.4033 26.5403 65.2919 28.8507 64.581 32.5829ZM86.6189 22.0972H82.3535V21.9194C82.709 19.0758 83.2421 17.654 85.5526 17.4763C86.9744 17.2986 87.6853 16.5877 87.863 15.6991C88.0407 14.9882 88.3962 12.6777 88.3962 12.6777C79.6877 12.6777 77.0218 16.41 76.3109 22.0972V22.2749H76.1332C74.7113 22.2749 73.1118 23.8744 72.9341 25.8294L72.7564 26.5403H75.6L73.1118 46.4455L72.4009 50C72.5787 50 72.5786 50 72.7564 50C76.844 49.8223 79.3322 46.6232 80.0431 42.0024L81.9981 26.3626H83.4199C84.6639 26.3626 86.2635 25.1185 86.6189 22.8081V22.0972ZM109.012 21.7417C104.036 21.7417 99.4151 25.4739 97.9933 31.1611C96.5715 36.8483 98.7042 43.7796 105.991 43.7796C113.278 43.7796 117.543 36.6706 117.543 30.8057C117.365 24.9408 113.455 21.7417 109.012 21.7417ZM110.967 32.4052C110.79 35.0711 109.545 38.981 106.346 38.981C103.147 38.981 103.681 34.3602 103.858 32.2275C104.214 29.9171 105.458 26.5403 108.301 26.5403C110.967 26.5403 111.323 29.5616 110.967 32.4052ZM142.069 28.3175C142.069 28.3175 139.581 36.1374 139.403 36.8483C139.403 36.1374 137.448 22.0972 137.448 22.0972C133.183 22.0972 130.872 25.1185 129.806 28.3175C129.806 28.3175 126.785 36.1374 126.607 36.8483C126.607 36.3152 126.074 28.4953 126.074 28.4953C125.896 24.5853 122.164 22.2749 119.32 22.2749L122.875 43.6019C127.318 43.6019 129.806 40.5806 131.05 37.3815C131.05 37.3815 133.716 30.4502 133.894 30.0948C133.894 30.4502 135.849 43.6019 135.849 43.6019C140.292 43.6019 142.78 40.7583 144.024 37.737L149.889 22.0972C145.446 22.0972 143.136 25.1185 142.069 28.3175ZM90.7066 12.6777L87.1521 41.8246L86.4412 45.3791C86.6189 45.3791 86.6189 45.3791 86.7967 45.3791C90.7066 45.3791 93.5502 41.8246 93.9057 37.5592L96.0384 20.8531C96.5715 15.8768 93.3725 12.6777 90.7066 12.6777Z" fill="#1B1B1B"/>
</g>
<defs>
<clipPath id="clip0_331_1740">
<rect width="150" height="60" fill="white" transform="translate(0.599976)"/>
</clipPath>
</defs>
</svg>
