<svg width="118" height="60" viewBox="0 0 118 60" fill="none" xmlns="http://www.w3.org/2000/svg">
<path fill-rule="evenodd" clip-rule="evenodd" d="M95.51 26.6217C95.9584 27.3921 96.1051 28.2685 96.1535 29.2539L96.2172 30.5672V39.7508L96.2822 41.0655C96.4123 43.2126 98.0025 44.8002 100.175 44.9352L101.489 45V30.5672L101.554 29.2539C101.608 28.2795 101.753 27.3865 102.208 26.6107C102.672 25.8149 103.338 25.1546 104.14 24.6962C104.941 24.2378 105.849 23.9973 106.773 23.999C107.697 24.0007 108.605 24.2444 109.404 24.7057C110.204 25.1671 110.868 25.8297 111.329 26.6272C111.777 27.3976 111.917 28.2906 111.971 29.2539L112.036 30.5631V39.7508L112.101 41.0655C112.237 43.2236 113.814 44.8112 115.994 44.9352L117.307 45V29.2539C117.307 26.4695 116.197 23.7991 114.22 21.8299C112.243 19.8607 109.562 18.7539 106.766 18.7528C105.269 18.7512 103.789 19.0677 102.425 19.681C101.062 20.2944 99.8447 21.1906 98.8564 22.3096C97.8676 21.191 96.6507 20.2951 95.2869 19.6815C93.9231 19.068 92.4436 18.7509 90.947 18.7514C88.7576 18.7514 86.726 19.4129 85.0431 20.5553C84.0162 19.4142 81.7188 18.7514 80.3999 18.7514V45L81.7188 44.9352C83.9248 44.7905 85.5191 43.2457 85.6049 41.0655L85.6755 39.7508V30.5672L85.7406 29.2539C85.7959 28.263 85.9343 27.3921 86.3841 26.6162C86.8485 25.8209 87.5142 25.1608 88.3149 24.7018C89.1156 24.2428 90.0232 24.001 90.947 24.0006C91.8716 24.0008 92.7799 24.243 93.5808 24.7031C94.3816 25.1631 95.0469 25.8248 95.51 26.6217ZM5.27151 44.9366L6.59043 45H26.3603L26.2953 43.6908C26.1167 41.5327 24.5819 39.9562 22.4077 39.8156L21.0888 39.7508H9.22826L25.0414 23.9992L24.9764 22.6914C24.8739 20.5112 23.2741 18.936 21.0888 18.8162L19.7699 18.7569L0 18.7514L0.0650462 20.0647C0.238041 22.2021 1.795 23.8118 3.95121 23.9358L5.27151 24.0006H17.1321L1.31892 39.7522L1.38396 41.0655C1.51405 43.2291 3.08208 44.796 5.27151 44.9352V44.9366ZM75.2252 22.5935C76.4494 23.8122 77.4204 25.2591 78.0829 26.8515C78.7454 28.4439 79.0864 30.1507 79.0864 31.8743C79.0864 33.598 78.7454 35.3047 78.0829 36.8972C77.4204 38.4896 76.4494 39.9364 75.2252 41.1551C72.7521 43.6158 69.399 44.998 65.9029 44.998C62.4067 44.998 59.0536 43.6158 56.5805 41.1551C51.4336 36.03 51.4336 27.7187 56.5805 22.5935C57.8035 21.3752 59.2555 20.4088 60.8536 19.7493C62.4517 19.0898 64.1647 18.7503 65.8946 18.75C67.6273 18.7488 69.3432 19.0878 70.9443 19.7475C72.5453 20.4073 74.0001 21.3748 75.2252 22.5949V22.5935ZM71.4955 26.3102C72.978 27.7876 73.8108 29.7906 73.8108 31.8791C73.8108 33.9676 72.978 35.9707 71.4955 37.448C70.0118 38.9243 68.0003 39.7535 65.9029 39.7535C63.8055 39.7535 61.7939 38.9243 60.3103 37.448C58.8278 35.9707 57.995 33.9676 57.995 31.8791C57.995 29.7906 58.8278 27.7876 60.3103 26.3102C61.7939 24.834 63.8055 24.0048 65.9029 24.0048C68.0003 24.0048 70.0118 24.834 71.4955 26.3102ZM38.2319 18.75C39.9619 18.7505 41.6749 19.0902 43.273 19.7499C44.8712 20.4097 46.3231 21.3764 47.546 22.5949C52.6943 27.7187 52.6943 36.0313 47.546 41.1551C45.0729 43.6158 41.7198 44.998 38.2236 44.998C34.7275 44.998 31.3744 43.6158 28.9013 41.1551C23.7543 36.03 23.7543 27.7187 28.9013 22.5935C30.1243 21.3752 31.5763 20.4088 33.1744 19.7493C34.7725 19.0898 36.4854 18.7503 38.2153 18.75H38.2319ZM43.8162 26.3075C45.2992 27.7849 46.1322 29.7882 46.1322 31.8771C46.1322 33.9659 45.2992 35.9692 43.8162 37.4466C42.3326 38.9229 40.321 39.7521 38.2236 39.7521C36.1263 39.7521 34.1147 38.9229 32.6311 37.4466C31.1485 35.9693 30.3158 33.9663 30.3158 31.8778C30.3158 29.7893 31.1485 27.7862 32.6311 26.3089C34.1147 24.8326 36.1263 24.0034 38.2236 24.0034C40.321 24.0034 42.3326 24.8326 43.8162 26.3089V26.3075Z" fill="#2D8CFF"/>
</svg>
